<?xml version="1.0"?>
<svg xmlns:rdf="http://www.w3.org/1999/02/22-rdf-syntax-ns#" xmlns="http://www.w3.org/2000/svg" xmlns:cc="http://creativecommons.org/ns#" xmlns:xlink="http://www.w3.org/1999/xlink" xmlns:dc="http://purl.org/dc/elements/1.1/" xmlns:svg="http://www.w3.org/2000/svg" id="svg2" style="enable-background:new" viewBox="0 0 397.44 519.92" version="1.0">
  <defs id="defs4">
    <pattern id="pattern6177" xlink:href="#pattern6161" patternTransform="matrix(.081306 -.081306 .081306 .081306 -380.42 1189.7)"/>
    <linearGradient id="linearGradient5997">
      <stop id="stop5999" offset="0"/>
      <stop id="stop6001" stop-opacity="0" offset="1"/>
    </linearGradient>
    <linearGradient id="linearGradient16101">
      <stop id="stop16103" stop-color="#6d190f" offset="0"/>
      <stop id="stop16105" stop-color="#96190f" stop-opacity="0" offset="1"/>
    </linearGradient>
    <filter id="filter3528">
      <feBlend id="feBlend3530" in2="BackgroundImage" mode="lighten"/>
    </filter>
    <pattern id="pattern6161" width="173.75283" patternUnits="userSpaceOnUse" patternTransform="translate(-380.42 1189.7)" height="170.88318">
      <g id="g6141" transform="translate(640.42 -1189.7)">
        <path id="path6143" style="enable-background:accumulate" transform="matrix(6.6163 -1.132 1.132 6.6163 2072.1 -8368.1)" d="m-633.93 1359.6l-5.18 1.5-2.96-4.5 3.36-4.2 5.03 1.9-0.25 5.3z"/>
        <path id="path6145" d="m-633.93 1359.6l-5.18 1.5-2.96-4.5 3.36-4.2 5.03 1.9-0.25 5.3z" style="enable-background:accumulate" transform="matrix(1.5234 6.5373 -6.5373 1.5234 9231.2 3375)"/>
        <path id="path6147" style="enable-background:accumulate" transform="matrix(4.1678 5.2618 -5.2618 4.1678 9185 -1085.8)" d="m-633.93 1359.6l-5.18 1.5-2.96-4.5 3.36-4.2 5.03 1.9-0.25 5.3z"/>
        <path id="path6149" d="m-633.93 1359.6l-5.18 1.5-2.96-4.5 3.36-4.2 5.03 1.9-0.25 5.3z" style="enable-background:accumulate" transform="matrix(-6.6163 -1.132 -1.132 6.6163 -3237 -8368.1)"/>
        <path id="path6151" style="enable-background:accumulate" transform="matrix(-1.5234 6.5373 6.5373 1.5234 -10396 3375)" d="m-633.93 1359.6l-5.18 1.5-2.96-4.5 3.36-4.2 5.03 1.9-0.25 5.3z"/>
        <path id="path6153" d="m-633.93 1359.6l-5.18 1.5-2.96-4.5 3.36-4.2 5.03 1.9-0.25 5.3z" style="enable-background:accumulate" transform="matrix(-4.1678 5.2618 5.2618 4.1678 -10350 -1085.8)"/>
        <path id="path6155" style="enable-background:accumulate" transform="matrix(6.6163 -1.132 1.132 6.6163 2187.4 -8368.1)" d="m-633.93 1359.6l-5.18 1.5-2.96-4.5 3.36-4.2 5.03 1.9-0.25 5.3z"/>
        <path id="path6157" d="m-633.93 1359.6l-5.18 1.5-2.96-4.5 3.36-4.2 5.03 1.9-0.25 5.3z" style="enable-background:accumulate" transform="matrix(1.5234 6.5373 -6.5373 1.5234 9346.5 3375)"/>
        <path id="path6159" style="enable-background:accumulate" transform="matrix(4.1678 5.2618 -5.2618 4.1678 9300.3 -1085.8)" d="m-633.93 1359.6l-5.18 1.5-2.96-4.5 3.36-4.2 5.03 1.9-0.25 5.3z"/>
      </g>
    </pattern>
    <linearGradient id="linearGradient6278" y2="202.18" xlink:href="#linearGradient5997" gradientUnits="userSpaceOnUse" x2="1883.5" y1="-406.58" x1="1883.5"/>
    <linearGradient id="linearGradient6298" y2="1091.4" xlink:href="#linearGradient5997" gradientUnits="userSpaceOnUse" x2="1140.6" y1="617.15" x1="1136.7"/>
    <linearGradient id="linearGradient6362" y2="-781.97" xlink:href="#linearGradient5997" gradientUnits="userSpaceOnUse" x2="1071.2" y1="-780.18" x1="454.04"/>
    <radialGradient id="radialGradient6791" gradientUnits="userSpaceOnUse" cy="2183.8" cx="897.02" gradientTransform="matrix(1 0 0 .11946 2.9845 1911)" r="794.89">
      <stop id="stop6234" stop-opacity=".73913" offset="0"/>
      <stop id="stop6236" stop-opacity="0" offset="1"/>
    </radialGradient>
    <radialGradient id="radialGradient6793" gradientUnits="userSpaceOnUse" cy="-357.83" cx="1328.2" gradientTransform="translate(555.36 12.122)" r="195.97">
      <stop id="stop4166" stop-color="#fff" offset="0"/>
      <stop id="stop4168" stop-color="#bde7d3" offset="1"/>
    </radialGradient>
    <radialGradient id="radialGradient6795" xlink:href="#linearGradient16101" gradientUnits="userSpaceOnUse" cy="773.47" cx="3058.9" gradientTransform="matrix(.097269 -.090189 2.8959 3.1232 494.26 -1370.8)" r="32.691"/>
    <radialGradient id="radialGradient6797" gradientUnits="userSpaceOnUse" cy="765.94" cx="3084.7" gradientTransform="matrix(.14727 .082384 -2.7055 4.8365 4702.7 -3192.6)" r="21.692">
      <stop id="stop16994" stop-color="#b12714" offset="0"/>
      <stop id="stop16996" stop-color="#b12714" stop-opacity="0" offset="1"/>
    </radialGradient>
    <radialGradient id="radialGradient6799" xlink:href="#linearGradient16101" gradientUnits="userSpaceOnUse" cy="775.46" cx="2999.7" gradientTransform="matrix(.051568 -.039315 2.6582 3.4866 811.45 -1800.4)" r="32.691"/>
    <linearGradient id="linearGradient6915" y2="1579.1" gradientUnits="userSpaceOnUse" x2="397.37" y1="651.02" x1="1624">
      <stop id="stop2969" stop-color="#fff" stop-opacity=".60435" offset="0"/>
      <stop id="stop2971" stop-color="#fff" stop-opacity="0" offset="1"/>
    </linearGradient>
    <linearGradient id="linearGradient6917" y2="544.04" gradientUnits="userSpaceOnUse" x2="192.13" y1="421.92" x1="352.29">
      <stop id="stop6250" offset="0"/>
      <stop id="stop6252" stop-color="#565656" offset="1"/>
    </linearGradient>
    <linearGradient id="linearGradient6919" y2="1847.8" gradientUnits="userSpaceOnUse" x2="1164.1" y1="1367.5" x1="685.75">
      <stop id="stop6009" stop-color="#494849" offset="0"/>
      <stop id="stop6011" stop-color="#141314" offset="1"/>
    </linearGradient>
  </defs>
  <g id="layer9" transform="translate(-701.28 -979.1)">
    <g id="g6580" transform="matrix(.25 0 0 .25 675 929.3)">
      <rect id="rect6228" style="enable-background:accumulate" height="214.15" width="1589.8" y="2064.8" x="105.11" fill="url(#radialGradient6791)"/>
      <g id="g4814" style="enable-background:new" transform="matrix(-.65494 0 0 -.85420 1874.3 686.99)">
        <path id="path4816" d="m1687.6-541.68l391.9 33.75v303.94l-391.9 54.25v-391.94z" style="enable-background:accumulate" fill="url(#radialGradient6793)" fill-rule="evenodd"/>
        <g id="g4818" fill-rule="evenodd" transform="matrix(2.4856 0 0 2.1891 -5696.1 -2012.2)" stroke="#999" stroke-linecap="round" stroke-width=".5">
          <path id="path4820" d="m2999 731.67c1.2-0.29 64.2 9.49 64.2 9.49l1.2 75.95s-60.8-13.72-62.4-14.58c-0.4-1.92-3.4-69.75-3-70.86z" fill="#6d190f"/>
          <path id="path4822" d="m3063.2 741.14s41.1-27.39 41.8-26.34c0.6 1.07 1.9 70.67 1.3 71.8-0.6 1.11-40 31.82-42 30.47-1.8-1.29-1.1-75.93-1.1-75.93z" fill="#a22714"/>
          <path id="path4824" d="m3040.2 705.38l64.8 9.37-41.9 26.4s-62.3-9.61-64-9.48c-1.3-1.32 41.1-26.29 41.1-26.29z" fill="#b34116"/>
          <path id="path4826" d="m2999 731.67c1.2-0.29 64.2 9.49 64.2 9.49l1.2 75.95s-60.8-13.72-62.4-14.58c-0.4-1.92-3.4-69.75-3-70.86z" fill="url(#radialGradient6795)"/>
          <path id="path4828" d="m3063.2 741.14s41.1-27.39 41.8-26.34c0.6 1.07 1.9 70.67 1.3 71.8-0.6 1.11-40 31.82-42 30.47-1.8-1.29-1.1-75.93-1.1-75.93z" fill="url(#radialGradient6797)"/>
          <path id="path4830" d="m2999 731.67c1.2-0.29 64.2 9.49 64.2 9.49l1.2 75.95s-60.8-13.72-62.4-14.58c-0.4-1.92-3.4-69.75-3-70.86z" fill="url(#radialGradient6799)"/>
        </g>
        <flowRoot id="flowRoot4832" font-size="36px" xml:space="preserve" transform="matrix(1 .098091 0 1 1389.5 198.14)" font-family="Bitstream Vera Sans Mono" line-height="125%" fill="#616262">
          <flowRegion id="flowRegion4834">
            <rect id="rect4836" height="102.03" width="160.61" y="-745.62" x="328.3" fill="#616262"/>
          </flowRegion>
          <flowPara id="flowPara4838">Lorem Ipsum</flowPara>
          <flowPara id="flowPara4840"/>
        </flowRoot>
        <flowRoot id="flowRoot4842" font-size="36px" xml:space="preserve" transform="matrix(1 -.15834 0 1 1453.3 482.54)" font-family="Bitstream Vera Sans Mono" line-height="125%" fill="#616262">
          <flowRegion id="flowRegion4844">
            <rect id="rect4846" height="203.84" width="285.53" y="-700.16" x="323.25" fill="#616262"/>
          </flowRegion>
          <flowPara id="flowPara4848">This album is by somebody.</flowPara>
        </flowRoot>
      </g>
      <g id="g4795" style="enable-background:new" transform="matrix(.65494 0 0 .85420 -592.93 989.6)">
        <path id="rect4245" d="m1687.6-541.68l391.9 33.75v303.94l-391.9 54.25v-391.94z" style="enable-background:accumulate" fill="url(#radialGradient6793)" fill-rule="evenodd"/>
        <g id="g4247" fill-rule="evenodd" transform="matrix(2.4856 0 0 2.1891 -5696.1 -2012.2)" stroke="#999" stroke-linecap="round" stroke-width=".5">
          <path id="path4249" d="m2999 731.67c1.2-0.29 64.2 9.49 64.2 9.49l1.2 75.95s-60.8-13.72-62.4-14.58c-0.4-1.92-3.4-69.75-3-70.86z" fill="#6d190f"/>
          <path id="path4251" d="m3063.2 741.14s41.1-27.39 41.8-26.34c0.6 1.07 1.9 70.67 1.3 71.8-0.6 1.11-40 31.82-42 30.47-1.8-1.29-1.1-75.93-1.1-75.93z" fill="#a22714"/>
          <path id="path4253" d="m3040.2 705.38l64.8 9.37-41.9 26.4s-62.3-9.61-64-9.48c-1.3-1.32 41.1-26.29 41.1-26.29z" fill="#b34116"/>
          <path id="path4255" d="m2999 731.67c1.2-0.29 64.2 9.49 64.2 9.49l1.2 75.95s-60.8-13.72-62.4-14.58c-0.4-1.92-3.4-69.75-3-70.86z" fill="url(#radialGradient6795)"/>
          <path id="path4257" d="m3063.2 741.14s41.1-27.39 41.8-26.34c0.6 1.07 1.9 70.67 1.3 71.8-0.6 1.11-40 31.82-42 30.47-1.8-1.29-1.1-75.93-1.1-75.93z" fill="url(#radialGradient6797)"/>
          <path id="path4259" d="m2999 731.67c1.2-0.29 64.2 9.49 64.2 9.49l1.2 75.95s-60.8-13.72-62.4-14.58c-0.4-1.92-3.4-69.75-3-70.86z" fill="url(#radialGradient6799)"/>
        </g>
        <flowRoot id="flowRoot4261" font-size="36px" xml:space="preserve" transform="matrix(1 .098091 0 1 1389.5 198.14)" font-family="Bitstream Vera Sans Mono" line-height="125%" fill="#616262">
          <flowRegion id="flowRegion4263">
            <rect id="rect4265" height="102.03" width="160.61" y="-745.62" x="328.3" fill="#616262"/>
          </flowRegion>
          <flowPara id="flowPara4267">Lorem Ipsum</flowPara>
          <flowPara id="flowPara4269"/>
        </flowRoot>
        <flowRoot id="flowRoot4271" font-size="36px" xml:space="preserve" transform="matrix(1 -.15834 0 1 1453.3 482.54)" font-family="Bitstream Vera Sans Mono" line-height="125%" fill="#616262">
          <flowRegion id="flowRegion4273">
            <rect id="rect4275" height="203.84" width="285.53" y="-700.16" x="323.25" fill="#616262"/>
          </flowRegion>
          <flowPara id="flowPara4277">This album is by somebody.</flowPara>
        </flowRoot>
      </g>
      <g id="g4858" style="enable-background:accumulate" transform="matrix(-.65494 0 0 -.85420 1874.3 686.99)" fill="url(#linearGradient6278)">
        <path id="path4860" style="enable-background:accumulate" d="m1687.6-541.68l391.9 33.75v303.94l-391.9 54.25v-391.94z"/>
        <g id="g4862" style="enable-background:accumulate" transform="matrix(2.4856 0 0 2.1891 -5696.1 -2012.2)">
          <path id="path4864" style="enable-background:accumulate" d="m2999 731.67c1.2-0.29 64.2 9.49 64.2 9.49l1.2 75.95s-60.8-13.72-62.4-14.58c-0.4-1.92-3.4-69.75-3-70.86z"/>
          <path id="path4866" style="enable-background:accumulate" d="m3063.2 741.14s41.1-27.39 41.8-26.34c0.6 1.07 1.9 70.67 1.3 71.8-0.6 1.11-40 31.82-42 30.47-1.8-1.29-1.1-75.93-1.1-75.93z"/>
          <path id="path4868" style="enable-background:accumulate" d="m3040.2 705.38l64.8 9.37-41.9 26.4s-62.3-9.61-64-9.48c-1.3-1.32 41.1-26.29 41.1-26.29z"/>
          <path id="path4870" style="enable-background:accumulate" d="m2999 731.67c1.2-0.29 64.2 9.49 64.2 9.49l1.2 75.95s-60.8-13.72-62.4-14.58c-0.4-1.92-3.4-69.75-3-70.86z"/>
          <path id="path4872" style="enable-background:accumulate" d="m3063.2 741.14s41.1-27.39 41.8-26.34c0.6 1.07 1.9 70.67 1.3 71.8-0.6 1.11-40 31.82-42 30.47-1.8-1.29-1.1-75.93-1.1-75.93z"/>
          <path id="path4874" style="enable-background:accumulate" d="m2999 731.67c1.2-0.29 64.2 9.49 64.2 9.49l1.2 75.95s-60.8-13.72-62.4-14.58c-0.4-1.92-3.4-69.75-3-70.86z"/>
        </g>
        <flowRoot id="flowRoot4876" style="enable-background:accumulate" transform="matrix(1 .098091 0 1 1389.5 198.14)" xml:space="preserve" font-size="36px" font-family="Bitstream Vera Sans Mono" line-height="125%">
          <flowRegion id="flowRegion4878">
            <rect id="rect4880" style="enable-background:accumulate" height="102.03" width="160.61" y="-745.62" x="328.3" fill="url(#linearGradient6278)"/>
          </flowRegion>
          <flowPara id="flowPara4882" style="enable-background:accumulate" stroke-width="1.337">Lorem Ipsum</flowPara>
          <flowPara id="flowPara4884" style="enable-background:accumulate" stroke-width="1.337"/>
        </flowRoot>
        <flowRoot id="flowRoot4886" style="enable-background:accumulate" transform="matrix(1 -.15834 0 1 1453.3 482.54)" xml:space="preserve" font-size="36px" font-family="Bitstream Vera Sans Mono" line-height="125%">
          <flowRegion id="flowRegion4888">
            <rect id="rect4890" style="enable-background:accumulate" height="203.84" width="285.53" y="-700.16" x="323.25" fill="url(#linearGradient6278)"/>
          </flowRegion>
          <flowPara id="flowPara4892" style="enable-background:accumulate" stroke-width="1.337">This album is by somebody.</flowPara>
        </flowRoot>
      </g>
      <g id="g5965" style="enable-background:new" transform="matrix(-1 0 0 -1 2297.3 1671.2)">
        <path id="path5967" style="enable-background:accumulate" d="m987.9 558.49l321.5-30.65v321.48l-321.5-32.85v-257.98z" fill-rule="evenodd" stroke="#000" stroke-width="8.2076" fill="#fff"/>
        <flowRoot id="flowRoot5969" font-size="36px" xml:space="preserve" transform="matrix(.82076 .13365 0 .82076 780.57 1336.7)" font-family="Bitstream Vera Sans Mono" line-height="125%" fill="#000000">
          <flowRegion id="flowRegion5971">
            <rect id="rect5973" height="112.13" width="611.14" y="-745.62" x="328.3" fill="#000"/>
          </flowRegion>
          <flowPara id="flowPara5975">Lorem Ipsum</flowPara>
          <flowPara id="flowPara5977"/>
        </flowRoot>
        <path id="path5979" d="m1258.1 657.75c-3.7 0.64-7.3-1.19-8.4-4.33l-86.7 15.57c0 0.35-0.2 0.53-0.2 0.71l63.2 3.69c0.8-2.32 3.3-4.16 6-3.89 3.4 0.07 5.9 2.64 5.5 5.65-0.4 3.02-3.3 5.23-6.4 5.15-3-0.27-5.1-2.14-5.3-4.61l-63.2-3.69v0.88l82.2 25.35c1.9-2.88 5.6-4.41 9.4-3.29 4.1 1.29 6 5.29 4.5 9.04-1.6 3.93-6.1 5.84-10.2 4.55-3.5-1.12-5.5-4.24-4.9-7.61l-82.4-25.35c-0.2 0.18-0.2 0.36-0.4 0.37l51.7 31.76c2.1-1.65 5.1-2.1 7.4-0.76 2.7 1.68 3.3 5.02 1.4 7.55-1.8 2.53-5.7 3.18-8.2 1.49-2.4-1.34-3.2-4.14-2-6.47l-51.5-31.6c-0.4 0.37-0.6 0.55-1 0.74l56 59.7c3.4-1.69 7.3-1.28 9.8 1.47 2.7 2.91 2.2 7.34-1.2 10.09-3.3 2.58-8.4 2.21-11.1-0.71-2.4-2.58-2.2-6.29 0-9l-56-59.71c0 0.18 0 0.18-0.2 0.19l26.2 51.09c2.6-0.61 5.5 0.36 6.7 2.79 1.4 2.61 0 5.83-2.9 7.15-3.2 1.51-6.7 0.39-8.1-2.4-1.1-2.26-0.2-4.93 2-6.59l-26-51.27c-0.6 0.19-1 0.38-1.4 0.4l14.5 78.1c3.7 0.06 6.8 2.26 7.4 5.6 0.8 3.86-2.1 7.65-6.5 8.49-4.3 0.84-8.4-1.68-9.2-5.54-0.5-3.51 1.6-6.58 5.1-7.92l-14.4-78.11-0.2 0.01-6.1 57.03c2.5 0.8 4.5 2.86 4.1 5.52-0.2 3.01-3.1 5.21-6.5 4.96-3.3-0.07-5.8-2.64-5.4-5.83 0.4-2.48 2.5-4.49 5.2-4.75l6.3-57.04c-0.4-0.16-0.8 0.03-1.4-0.13l-30.9 75.63c3 1.67 4.5 5.15 3.1 8.37-1.5 3.76-6 5.66-10.1 4.55-4.1-1.28-6.3-5.45-4.7-9.21 1.3-3.22 5.1-5.1 8.6-4.68l31.3-75.99-0.2 0.01-37 47.57c2 1.88 2.2 4.52 0.6 6.69-2 2.53-5.7 3.17-8.4 1.49-2.8-1.68-3.3-5.01-1.4-7.37 1.8-2.17 4.7-2.97 7.3-1.99l36.8-47.56c-0.2-0.17-0.4-0.52-0.8-0.68l-68.5 52.95c1.7 2.95 0.9 6.68-2 8.89-3.3 2.57-8.4 2.2-11.1-0.71-2.8-2.92-2.4-7.52 1.1-10.1 3-2.21 7.1-2.16 9.8-0.31l68.7-52.96-0.2-0.17-57.7 25.26c0.6 2.46-0.6 5.14-3.3 6.29-3 1.32-6.5 0.19-7.9-2.59-1.3-2.6 0-5.82 3-7.15 2.5-1.14 5.6-0.35 7.2 1.54l57.7-25.44c0-0.17 0-0.53-0.2-0.7l-87.8 15.96c-0.2 3.18-2.8 6.26-6.5 6.91-4.3 0.66-8.4-1.69-9.2-5.72-0.8-3.86 2.2-7.66 6.7-8.33 3.7-0.82 7.2 1.19 8.4 4.16l87.9-15.78v-0.71l-63.1-3.52c-0.9 2.32-3.3 4.16-6.2 3.9-3.4-0.08-5.7-2.83-5.5-5.66 0.4-3.01 3.3-5.4 6.6-5.15 3 0.09 4.9 2.15 5.3 4.61l63.1 3.7c0-0.18 0-0.36 0.1-0.54l-83.3-25.67c-2 2.89-5.7 4.42-9.4 3.29-4.1-1.28-6.1-5.28-4.5-9.04 1.5-3.75 6-5.83 10.2-4.55 3.5 1.13 5.4 4.25 4.8 7.62l83.4 25.67c0.2-0.19 0.2-0.54 0.4-0.72l-51.7-31.77c-1.9 1.65-5 2.1-7.4 0.76-2.7-1.68-3.3-5.02-1.4-7.55 2-2.53 5.7-3.17 8.5-1.49 2.3 1.34 2.9 4.14 1.9 6.47l51.5 31.6s0-0.18 0.2-0.19l-56.4-60.04c-3.3 1.51-7.2 1.11-9.8-1.46-2.7-2.92-2.3-7.52 1.2-10.1 3.3-2.58 8.4-2.38 11.2 0.54 2.3 2.75 2.1 6.46 0 9l56.1 60.22c0.4-0.36 0.6-0.54 1-0.73l-26-51.27c-2.8 0.61-5.7-0.36-6.9-2.62-1.3-2.78 0-6 3-7.32 3.1-1.34 6.6-0.21 8 2.4 1.2 2.43 0.2 5.11-2 6.59l26.3 51.26h0.1l-14.4-78.46c-3.8-0.06-6.9-2.09-7.7-5.59-0.6-3.87 2.4-7.67 6.7-8.5 4.3-0.67 8.4 1.85 9.2 5.71 0.6 3.34-1.8 6.59-5.1 7.93l14.5 78.1c0.4-0.18 0.8-0.02 1.2-0.03l6.2-57.04c-2.7-0.62-4.5-2.86-4.3-5.51 0.2-1.07 0.8-1.97 1.6-2.88 0-0.17 0.2-0.35 0.2-0.35 1.3-1.11 2.9-1.86 4.9-1.74 3.3 0.07 5.6 2.64 5.4 5.65-0.3 2.66-2.7 4.5-5.4 4.94l-6.1 57.03 0.2-0.01 31.1-75.46c-3.1-1.66-4.7-4.97-3.3-8.37 1.6-3.75 6.1-5.66 10.2-4.37 4.1 1.28 6.2 5.28 4.7 9.03-1.4 3.22-4.9 5.1-8.6 4.68l-31 75.45c0.2 0.17 0.6 0.34 1 0.5l36.8-47.56c-2-1.71-2.2-4.52-0.6-6.69 2-2.53 5.7-3.18 8.4-1.5 2.8 1.68 3.4 5.02 1.4 7.55-1.6 2.17-4.7 2.79-7.2 1.99l-36.6 47.2c0 0.18 0 0.36 0.2 0.35l67.7-52.22c-1.6-2.96-1-6.51 1.9-8.89 3.4-2.58 8.4-2.38 11.2 0.71 2.7 2.92 2.3 7.52-1.2 10.1-2.9 2.21-7 2.16-9.8 0.3l-67.7 52.23c0.2 0.35 0.4 0.52 0.6 0.69l57.5-25.26c-0.6-2.45 0.8-5.14 3.4-6.28 3.1-1.33 6.6-0.21 8 2.4 0.4 0.87 0.4 1.75 0.4 2.64 0 0.35 0 0.53-0.2 0.88-0.4 1.61-1.4 3.05-3.3 3.81-2.6 1.14-5.5 0.35-7.1-1.54l-57.9 25.44c0.2 0.17 0.2 0.35 0.2 0.53l86.9-15.58c0.2-3.36 2.7-6.26 6.4-6.9 4.3-0.84 8.4 1.68 9.2 5.54 0.6 3.86-2.3 7.66-6.6 8.5z" fill-rule="evenodd" fill="#1f1a17" class="fil2"/>
      </g>
      <g id="g5981" style="enable-background:new" fill="url(#linearGradient6298)" transform="matrix(-1 0 0 -1 2297.3 1671.2)">
        <path id="path5983" style="enable-background:accumulate" d="m987.9 558.49l321.5-30.65v321.48l-321.5-32.85v-257.98z" fill-rule="evenodd" stroke="#000" stroke-width="8.2076"/>
        <flowRoot id="flowRoot5985" font-size="36px" xml:space="preserve" transform="matrix(.82076 .13365 0 .82076 780.57 1336.7)" font-family="Bitstream Vera Sans Mono" line-height="125%">
          <flowRegion id="flowRegion5987">
            <rect id="rect5989" height="112.13" width="611.14" y="-745.62" x="328.3" fill="url(#linearGradient6298)"/>
          </flowRegion>
          <flowPara id="flowPara5991">Lorem Ipsum</flowPara>
          <flowPara id="flowPara5993"/>
        </flowRoot>
        <path id="path5995" d="m1258.1 657.75c-3.7 0.64-7.3-1.19-8.4-4.33l-86.7 15.57c0 0.35-0.2 0.53-0.2 0.71l63.2 3.69c0.8-2.32 3.3-4.16 6-3.89 3.4 0.07 5.9 2.64 5.5 5.65-0.4 3.02-3.3 5.23-6.4 5.15-3-0.27-5.1-2.14-5.3-4.61l-63.2-3.69v0.88l82.2 25.35c1.9-2.88 5.6-4.41 9.4-3.29 4.1 1.29 6 5.29 4.5 9.04-1.6 3.93-6.1 5.84-10.2 4.55-3.5-1.12-5.5-4.24-4.9-7.61l-82.4-25.35c-0.2 0.18-0.2 0.36-0.4 0.37l51.7 31.76c2.1-1.65 5.1-2.1 7.4-0.76 2.7 1.68 3.3 5.02 1.4 7.55-1.8 2.53-5.7 3.18-8.2 1.49-2.4-1.34-3.2-4.14-2-6.47l-51.5-31.6c-0.4 0.37-0.6 0.55-1 0.74l56 59.7c3.4-1.69 7.3-1.28 9.8 1.47 2.7 2.91 2.2 7.34-1.2 10.09-3.3 2.58-8.4 2.21-11.1-0.71-2.4-2.58-2.2-6.29 0-9l-56-59.71c0 0.18 0 0.18-0.2 0.19l26.2 51.09c2.6-0.61 5.5 0.36 6.7 2.79 1.4 2.61 0 5.83-2.9 7.15-3.2 1.51-6.7 0.39-8.1-2.4-1.1-2.26-0.2-4.93 2-6.59l-26-51.27c-0.6 0.19-1 0.38-1.4 0.4l14.5 78.1c3.7 0.06 6.8 2.26 7.4 5.6 0.8 3.86-2.1 7.65-6.5 8.49-4.3 0.84-8.4-1.68-9.2-5.54-0.5-3.51 1.6-6.58 5.1-7.92l-14.4-78.11-0.2 0.01-6.1 57.03c2.5 0.8 4.5 2.86 4.1 5.52-0.2 3.01-3.1 5.21-6.5 4.96-3.3-0.07-5.8-2.64-5.4-5.83 0.4-2.48 2.5-4.49 5.2-4.75l6.3-57.04c-0.4-0.16-0.8 0.03-1.4-0.13l-30.9 75.63c3 1.67 4.5 5.15 3.1 8.37-1.5 3.76-6 5.66-10.1 4.55-4.1-1.28-6.3-5.45-4.7-9.21 1.3-3.22 5.1-5.1 8.6-4.68l31.3-75.99-0.2 0.01-37 47.57c2 1.88 2.2 4.52 0.6 6.69-2 2.53-5.7 3.17-8.4 1.49-2.8-1.68-3.3-5.01-1.4-7.37 1.8-2.17 4.7-2.97 7.3-1.99l36.8-47.56c-0.2-0.17-0.4-0.52-0.8-0.68l-68.5 52.95c1.7 2.95 0.9 6.68-2 8.89-3.3 2.57-8.4 2.2-11.1-0.71-2.8-2.92-2.4-7.52 1.1-10.1 3-2.21 7.1-2.16 9.8-0.31l68.7-52.96-0.2-0.17-57.7 25.26c0.6 2.46-0.6 5.14-3.3 6.29-3 1.32-6.5 0.19-7.9-2.59-1.3-2.6 0-5.82 3-7.15 2.5-1.14 5.6-0.35 7.2 1.54l57.7-25.44c0-0.17 0-0.53-0.2-0.7l-87.8 15.96c-0.2 3.18-2.8 6.26-6.5 6.91-4.3 0.66-8.4-1.69-9.2-5.72-0.8-3.86 2.2-7.66 6.7-8.33 3.7-0.82 7.2 1.19 8.4 4.16l87.9-15.78v-0.71l-63.1-3.52c-0.9 2.32-3.3 4.16-6.2 3.9-3.4-0.08-5.7-2.83-5.5-5.66 0.4-3.01 3.3-5.4 6.6-5.15 3 0.09 4.9 2.15 5.3 4.61l63.1 3.7c0-0.18 0-0.36 0.1-0.54l-83.3-25.67c-2 2.89-5.7 4.42-9.4 3.29-4.1-1.28-6.1-5.28-4.5-9.04 1.5-3.75 6-5.83 10.2-4.55 3.5 1.13 5.4 4.25 4.8 7.62l83.4 25.67c0.2-0.19 0.2-0.54 0.4-0.72l-51.7-31.77c-1.9 1.65-5 2.1-7.4 0.76-2.7-1.68-3.3-5.02-1.4-7.55 2-2.53 5.7-3.17 8.5-1.49 2.3 1.34 2.9 4.14 1.9 6.47l51.5 31.6s0-0.18 0.2-0.19l-56.4-60.04c-3.3 1.51-7.2 1.11-9.8-1.46-2.7-2.92-2.3-7.52 1.2-10.1 3.3-2.58 8.4-2.38 11.2 0.54 2.3 2.75 2.1 6.46 0 9l56.1 60.22c0.4-0.36 0.6-0.54 1-0.73l-26-51.27c-2.8 0.61-5.7-0.36-6.9-2.62-1.3-2.78 0-6 3-7.32 3.1-1.34 6.6-0.21 8 2.4 1.2 2.43 0.2 5.11-2 6.59l26.3 51.26h0.1l-14.4-78.46c-3.8-0.06-6.9-2.09-7.7-5.59-0.6-3.87 2.4-7.67 6.7-8.5 4.3-0.67 8.4 1.85 9.2 5.71 0.6 3.34-1.8 6.59-5.1 7.93l14.5 78.1c0.4-0.18 0.8-0.02 1.2-0.03l6.2-57.04c-2.7-0.62-4.5-2.86-4.3-5.51 0.2-1.07 0.8-1.97 1.6-2.88 0-0.17 0.2-0.35 0.2-0.35 1.3-1.11 2.9-1.86 4.9-1.74 3.3 0.07 5.6 2.64 5.4 5.65-0.3 2.66-2.7 4.5-5.4 4.94l-6.1 57.03 0.2-0.01 31.1-75.46c-3.1-1.66-4.7-4.97-3.3-8.37 1.6-3.75 6.1-5.66 10.2-4.37 4.1 1.28 6.2 5.28 4.7 9.03-1.4 3.22-4.9 5.1-8.6 4.68l-31 75.45c0.2 0.17 0.6 0.34 1 0.5l36.8-47.56c-2-1.71-2.2-4.52-0.6-6.69 2-2.53 5.7-3.18 8.4-1.5 2.8 1.68 3.4 5.02 1.4 7.55-1.6 2.17-4.7 2.79-7.2 1.99l-36.6 47.2c0 0.18 0 0.36 0.2 0.35l67.7-52.22c-1.6-2.96-1-6.51 1.9-8.89 3.4-2.58 8.4-2.38 11.2 0.71 2.7 2.92 2.3 7.52-1.2 10.1-2.9 2.21-7 2.16-9.8 0.3l-67.7 52.23c0.2 0.35 0.4 0.52 0.6 0.69l57.5-25.26c-0.6-2.45 0.8-5.14 3.4-6.28 3.1-1.33 6.6-0.21 8 2.4 0.4 0.87 0.4 1.75 0.4 2.64 0 0.35 0 0.53-0.2 0.88-0.4 1.61-1.4 3.05-3.3 3.81-2.6 1.14-5.5 0.35-7.1-1.54l-57.9 25.44c0.2 0.17 0.2 0.35 0.2 0.53l86.9-15.58c0.2-3.36 2.7-6.26 6.4-6.9 4.3-0.84 8.4 1.68 9.2 5.54 0.6 3.86-2.3 7.66-6.6 8.5z" fill-rule="evenodd" class="fil2"/>
      </g>
      <g id="g4306" style="enable-background:new" transform="matrix(1 0 0 -1 400.86 280.43)">
        <rect id="rect4308" style="enable-background:accumulate" fill-rule="evenodd" height="195.97" width="195.97" y="-977.95" x="307.09" fill="#ce5c00"/>
        <g id="g4310" fill-rule="evenodd" transform="matrix(-.15846 0 0 .15846 606.59 -973.24)">
          <path id="path4312" d="m1293.4 99.188c-12.1 1.012-19.2 13.932-19.2 13.932-27.3 13.96-21.7 41.26-21.7 41.26-2.1 7.91-13.1 24.37-13.1 24.37-16.7 7.74-12.1 24.16-12.1 24.16l2.3 2.09c-2.6-8.88 1.2-6.03 1.4-5.84v0.09c0 1.53 5.5 5.53 5.5 5.53l5.8-1.78c-10.9 4.49-10 10.87-9.8 11.88 3-6.53 7.2-3.6 7.5-3.41-7.4 3.59-13.4 13.7-14.4 15.53 4.1-4.64 13.4-7.41 13.4-7.41l-4.8 4.38c-11.7 3.33-12.7 19.56-12.7 19.56l-11.1 5.63c-14 5.2-13.1 18.75-13.1 18.75-5.9 4.58-5.8 21.06-5.8 21.06l-7.5 15.62c-4.4 13.34-0.9 30-0.9 30-5.8 0.42-5 6.88-5 6.88s-3.1 0.41-10.4 2.28-5.8 13.34-5.8 13.34c-2.3 1.25-2.1 4.16-2.1 4.16l0.2 10c-5 5.83-4.6 20.84-4.6 20.84-1 11.05 9.2 16.44 9.2 16.44 3.1 7.29-0.4 7.11-1.7 12.94-1.2 5.65 3.9 5.04 4.2 5-4 16.25-4 42.69-4 42.69-1.2 22.29 0 63.75 0 63.75-2.8 7.26-0.5 12.4-0.4 12.71 0 0 1.7 6.87 1.1 15.41-0.7 8.54 1.6 14.81 1.6 14.81l0.6 12.28c0 13.12 2.4 18.23 2.5 18.54l5.3 13.56c8.1 7.71 6-3.34 6-3.34l-4.4-13.13 0.2-7.72c0.1-0.46 0.2-0.79 0.3-1 0.1-0.03 0.1-0.07 0.1-0.09 0-0.03 0-0.07 0.1-0.1v-0.06l0.1-0.03v-0.06h0.2v0.03s0.1 0.02 0.1 0.03v0.03c0 0.01 0.1 0.03 0.1 0.03 0.3 0.31 0.5 1.03 0.5 1.03-0.4 7.5 5.4 22.07 5.4 22.07l-1.3 4.81-4.7 5.81c-0.2 5.47-2.3 6.18-2.5 6.25-4.8 2.29-4.4 9.6-4.4 9.6-6.9 7.87-6.9 12.82-6.9 13.12l-19.2 46.66c-4.6 6.66-5.2 14.59-5.2 14.59-3.5 8.75-7.9 22.5-7.9 22.5-10.9 22.04-9.1 29.13-8.9 29.75v0.03c-4.6 8.33-5 22.72-5 22.72l0.6 47.91c-0.6 16.87 2.5 37.72 2.5 37.72l-1.3 75.62c1.3 39.58 2.3 79.4 2.3 79.4l-5.6 6.8c-5.4 0.9-6.2 7-6.2 7.3-5.5 1.9-3.6 9.4-3.6 9.4l0.2 13.3c0.4 8.8 17.7 7.6 17.7 7.6 28.6 0.4 31.1-12.8 31.1-12.8l0.4-9.8c2.3-3.3 2.9-11.2 2.9-11.2 4.8 5.4 10.6 3.1 10.6 3.1 14.6-3.1 13.6-21.4 13.6-21.4s2.5 0.2 2.9-3.4c0.4-3.5 6.2-11.6 6.2-11.6l-0.4-14.2c2.5-6.04 1.9-19.59 1.9-19.59l-0.8-34.38c-0.4-28.33-2.7-61.03-2.7-61.03 0.2-24.58-1.9-44.38-1.9-44.38 0.8-12.5 4.3-25.71 5.6-47.71 6.7-21.82 23.6-45.63 27.7-52.3 7.5-12.01 8.5-13.75 13.1-21.66 8.4-14.54 23.8-37.92 23.8-37.92 16.5-30 45.2-53.12 45.2-53.12 5.6 9.37 12.3 54.37 12.3 54.37 6.5 26.88 9.8 61.88 9.8 61.88l2.5 47.72-4 42.28c-3.5 10.2 0 60.84 0 60.84-16.6 33.43-4.1 46.48-3.7 46.88-3.2 4.16-8.8 21.46-8.8 21.46-4.2 12.5-3.1 51.26-3.1 51.26l3.5 2.1c-1.6 3.9-1.8 13.9-1.8 13.9 1.1 17.5 4.8 21.9 5.3 22.5h0.1c11.8 9.6 27.9 2.7 27.9 2.7 17.1-7 16.9-26.2 16.9-26.2l5.4 1.2c4.6 0.9 5-3.4 5-3.7l13.3-36.69c9.2-10.21 8.3-28.94 8.3-28.94-0.2-11.25 4.8-46.88 4.8-46.88l1.5-55.62c-1.3-37.08-4.8-90.85-4.8-90.85-1.4-26.04 1.1-60 1.1-60 0-21.66 5.8-65.84 5.8-65.84l14.8-3.31c3.9-0.42 6-2.94 6-2.94l8.6-12.5c4.1-1.87 3.9-8.53 3.9-8.53l3.8-29.16c3.6-8.88 1-16.41 0.8-16.87 0 0 0.6-66.68 0.4-80.22s-5-36.66-5-36.66 0.6-4.17 0.2-6.47c0.4-1.62 0.3-2.56 0.1-3.09-0.1-0.06-0.1-0.13-0.1-0.19 0-0.01-0.1-0.05-0.1-0.06 0-0.03 0-0.09-0.1-0.12v-0.07c-0.1-0.02-0.1-0.04-0.1-0.06-0.1-0.06-0.2-0.1-0.3-0.12 0-0.01-0.1-0.03-0.1-0.03-0.1-0.01-0.1 0-0.1 0l-0.2-3.76-0.2-17.09-0.2-11.65c0-0.01-0.1-0.03-0.1-0.04-0.4-0.43-2.8-3.59 0.9-12.06 4-9.17-0.8-21.03-0.8-21.03s-3.8-5.83-3.6-8.75-3.1-5.64-3.1-8.34c0-0.68-0.2-1.17-0.4-1.47v-0.03c0-0.01-0.1-0.03-0.1-0.04 0-0.02 0-0.07-0.1-0.09v-0.03c0-0.01 0-0.03-0.1-0.03 0-0.04-0.1-0.07-0.1-0.09-0.1-0.01-0.1-0.03-0.1-0.04 0 0-0.1-0.02-0.1-0.03h-0.3c0 0.01-0.1 0.02-0.1 0.03-0.1 0.03-0.3 0.08-0.4 0.13 0 0.04-0.1 0.1-0.2 0.15v0.04c-0.4 0.3-0.7 0.82-0.7 1.5-0.1 0.77-0.3 1.49-0.5 1.87 0 0.03-0.1 0.07-0.1 0.09v0.07s-0.1 0.02-0.1 0.03v0.03c0 0.01-0.1 0.03-0.1 0.03v0.03h-0.2s-0.1-0.02-0.1-0.03v-0.03c0-0.02-0.1-0.07-0.1-0.09 0-0.03-0.1-0.07-0.1-0.1-0.3-0.46-0.6-1.5-0.8-3.34-0.6-5.42 1.5-7.93 3.1-11.47 1.7-3.54-2.5-3.13-2.5-3.13l0.9-6.65c3.4-7.07 1.5-11.81 1.4-12.09l-5.6-9.79c1.6-8.07-3.1-11.07-3.3-11.25l-14.9-11.31c6.5 3.47 17 3.94 18.9 4-2.7-0.62-16.1-5.41-16.1-5.41-5.4-2.7-7.3-4.59-7.3-4.59s-10.8-13.73-12.7-17.06 0.6-6.25 0.6-6.25-0.6-4.39-1.9-5.22c-2.4-2.26-3.3-3.54-3.4-4.12v-0.1c0-0.01 0.1-0.05 0.1-0.06v-0.1s0.1-0.02 0.1-0.03v-0.03s0.1-0.02 0.1-0.03 0.1-0.02 0.1-0.03c1.8-0.26 7.2-16.53 7.2-16.53l0.8-1.88c8.4-8.31-1.4-30.62-1.4-30.62 0.6-3.96-1.1-10-1.1-10 1.3-3.54 1.3-4.79-1.4-16.25-2.5-10.41-5.7-12.07-6.2-12.28 0-0.01-0.1-0.03-0.1-0.03v-2.69c1.6-5.25-2.6-9.14-2.9-9.38l-5.2-13.56c-12.1-19.17-29.8-26.25-29.8-26.25s5.6 3.31 0-0.03c-5.2-3.05-13.2-7.31-36.2-11.219-2.4-0.402-4.6-0.589-6.6-0.593-0.3-0.001-0.6-0.01-1 0-0.1 0.003-0.2-0.006-0.3 0-0.1 0.002-0.2-0.004-0.2 0zm70.6 289.19v0.12c0 0.01 0.1 0.05 0.1 0.06v0.06c0 0.01 0.1 0.03 0.1 0.04 0.4 0.36 1.6 1.08 5.5 2.87 5.8 2.65 6.7 6.49 5.9 11.5-0.7 5.01 7.1 6.19 7.1 6.19l1 12.66c-0.3 4.99 5.1 5.59 5.5 5.62 6 0.14 7.8 3.18 7.9 3.38l4.6 34.9c1.5 24.01 10.3 62.91 10.3 62.91 4.3 16.5 5.2 32.7 5.6 37.12 0.3 2.7-0.6 3.54-1.4 3.78-0.3 0.12-0.7 0.08-0.8 0.07l-5.5-0.16-1.1-3.97c5.1-6.71 1.9-12.05 1.7-12.37-3.1-2.51-8.4-13.13-8.4-13.13 0-3.22-1.2-4.57-1.7-5-0.1-0.1-0.2-0.15-0.2-0.15-2.5-5.75 0.2-11.18 0.3-17.22 0.1-5.85-3.2-7.44-3.4-7.54-3.2 0-5.7-1.75-6.8-3.37-1-1.62-3.1-1.94-3.1-1.94-2-4.71-8.9-17.22-8.9-17.22-4.3-8.25-13.9-17.53-13.9-17.53-13.1-9.72-19.6-21.37-19.6-21.37 3.4-3.98 5.6-13.1 5.6-13.1 2.7-6.67 0.5-9.5 0.1-9.97 0-0.02-0.1-0.05-0.1-0.06l0.3-2.34c3-4 1.2-6.77 1.1-6.94l0.1-3.37c6 0.14 3.4-2.23 7.3-10.03 3.8-7.32 4.7-13.73 4.8-14.5zm-159.5 21.34h0.2c1.1-0.07 2.3 1.13 2.5 1.28-0.6 2.5 1.3 8.47 1.3 8.47l5.2 16.12c2.1 7.71 6.5 10.73 6.8 10.91 0.5 3.9-0.9 24.12-0.9 24.12-5.8 20.21-1.7 51.26-1.7 51.26-7.1 0.41-4.8 15.21-4.8 15.21 2.3 1.88 1.9 6.44 1.9 6.44-2.5 0.83-1.9 4.19-1.9 4.19l-8.5 6.66v-0.04c-0.1-0.01-0.1-0.05-0.1-0.06-1.2-1.24-7.6-5.94-7.6-5.94-5.7-2.22-5.9-7.01-5.9-7.31-5.4-15.21-0.8-45-0.8-45l12.9-84.37c0.2-0.81 0.5-1.33 0.8-1.63 0-0.03 0.1-0.07 0.1-0.09 0.2-0.09 0.3-0.15 0.4-0.19l0.1-0.03zm-1.3 164.56c1.2-0.08 2.9 0.05 3.1 1.41 0.4 2.06-3 4.06-3 4.06l-1.2-5.31c0.1-0.02 0.5-0.12 1.1-0.16zm202.6 9.22l5.5 6.47v0.06c0.5 0.46 2.5 2.95-0.6 9.53-3.4 7.14-6.2 7.34-6.4 7.35 0 0 2.8-21.36 0.6-23.13l0.9-0.28z"/>
          <g id="g4314" transform="matrix(1.0654 0 0 1.007 -82.096 .038477)">
            <path id="path4316" d="m1356 331.25s6.1-13.54-13.9-23.13c-20-9.58-2.7-37.91-2.7-37.91s11-20.84 11.4-27.09c0.5-6.25 4.4 21.67 4.4 21.67s-11.4 18.96-11.7 26.67c-0.2 7.71 2.8 10.62 6.3 13.12s16.2 14.79 11.5 22.71c-4.8 7.92-8 9.69-8 9.69l2.7-5.73z" fill="#9a773d"/>
            <path id="path4318" d="m1325 103.75s31.3 12.08 44.6 45 11.7 30.83 10.4 46.25-5 94.17-8.7 103.75c-3.8 9.58-7.5 16.67 15 20 0 0-9.4 10.21-25.3-1.25 0 0-11.4-9.79-1.6-28.13 0 0-13.4-28.95-11.5-47.5 1.9-18.54-5.6-39.37-5.6-39.37s5.4-13.75-1.7-36.67l-15.6-62.08z" fill="#e4cd85"/>
            <path id="path4320" d="m1334.6 109.37s5.2 21.67 9.6 29.8 17.5 27.5 22.1 32.91 2 3.96 2 12.09-0.2 4.79 9.2 11.87 13.3 7.92 9.2 21.25c0 0-3.8 8.33-12.5 17.08 0 0-5.9 5.63-2.5 8.13 3.3 2.5 8.1 6.87 13.9 7.92 5.9 1.04 9.2 2.91 9.2 2.91s-19 1.04-24.8-1.04-25.4-11.25-13.3-20.83c12.1-9.59 28.7-19.79 20-27.29-8.8-7.5-30.2-16.05-27.7-32.3s-20.5-46.25-20.5-46.25l-5-21.45s6.1 1.25 11.1 5.2z" fill="#c7a153"/>
            <path id="path4322" d="m1293.1 123.41s15.3-6.15 31.5 24.02 18.8 23.8 31 24.65 13.6-6.8 22.3-6.37c8.7 0.42 4.4-0.85-1.3-5.1l5.2 0.42s-1.3-12.75-13.1-11.05-21.8-5.1-28.4-12.75c-6.5-7.65-14.4-19.97-12.7-28.05 0 0-0.8-9.221-22.3-11.047-24.7-2.125-25.6 3.427-33 14.137 0 0 20.8 9.44 20.8 11.14z" fill="#d4bd81"/>
            <path id="path4324" d="m1277.1 120.21s16.2 10.41 27.1 38.75c10.8 28.33 34.6 20.83 34.6 20.83s-16.3 2.08-25.9-16.67-12.9-30-12.9-30-0.8-9.16-17.5-19.16-30.8 21.25-30.8 21.25-4.2 12.5 0 23.75c4.1 11.25-10.4 26.25-10.4 26.25s-15.5 8.75-12.1 20.83c3.3 12.08-25.4 67.5-25.4 67.5s18.3-11.25 34.5-38.33c16.3-27.09 25-57.09 25-57.09s-2-13.33 3.4-17.91-7.5-31.25 10.4-40z" fill="#edd18e"/>
            <path id="path4326" d="m1251 156.04s-10 19.38-12.2 21.46-18.4 6.25-13.2 29.17l1.9-2.92 1.9 1.46s34.4-38.34 21.6-49.17z" fill="#f4e2b3"/>
            <path id="path4328" d="m1220.4 301.04s9.2 10.63 18.1 8.75-13.5-4.58-14.3-10.42c-0.9-5.83 0.2-9.37 0.2-9.37s4.8 14.17 20.2 15.42-6.9-3.75-7.3-5.63 7.9 5.83 12.7 6.25-20.2-12.92-18.3-18.75 10.4 5.83 15.4-10.62c5-16.46 5.4-37.09 11.7-42.71 6.2-5.63 6.4-13.34 6.4-13.34l-21.4 10-24.2 62.09 0.8 8.33z" fill="#b8934a"/>
            <path id="path4330" d="m1265.4 161.46s0.6 17.29 3.4 23.96c2.7 6.66 0.8 1.87 0.8 1.87s-1.9 5.83-0.8 8.54c1 2.71 5.2 21.46 5.2 21.46s-5.7 9.58-13.4 11.67-10-0.42-12.9 2.5c-2.9 2.91 0.2 10-5 30 0 0-7.3 13.33-16 20.62 0 0-5 9.38-6.7 21.67s-6.9 15.21-6.9 15.21 5.2-7.5 5.7-30-1.1-16.88 6.6-24.79c7.7-7.92 12.3-55.63 12.3-55.63l27.7-47.08z" fill="#8b6121"/>
          </g>
        </g>
        <g id="g4332" fill-rule="evenodd" fill="#8f5902">
          <rect id="rect4334" style="enable-background:accumulate" height="195.97" width="195.97" y="-977.95" x="503.09"/>
          <rect id="rect4336" style="enable-background:accumulate" height="195.97" width="195.97" y="-781.95" x="503.09"/>
        </g>
        <rect id="rect4338" style="enable-background:accumulate" fill-rule="evenodd" height="195.97" width="195.97" y="-781.95" x="307.09" fill="#f57900"/>
        <g id="g4340" fill-rule="evenodd" transform="matrix(.34255 0 0 .34255 129.45 -995.93)">
          <path id="path4342" d="m1398.4 135.2c-12 1.01-19.2 13.93-19.2 13.93-27.3 13.96-21.6 41.25-21.6 41.25-2.1 7.92-13.2 24.38-13.2 24.38-16.7 7.74-12.1 24.15-12.1 24.15l2.4 2.1c-2.7-8.88 1.1-6.03 1.4-5.85v0.1c0 1.53 5.4 5.53 5.4 5.53l5.8-1.78c-10.9 4.49-10 10.87-9.7 11.87 3-6.52 7.2-3.59 7.5-3.4-7.4 3.59-13.4 13.7-14.4 15.53 4-4.64 13.3-7.41 13.3-7.41l-4.8 4.38c-11.6 3.33-12.7 19.56-12.7 19.56l-11 5.62c-14 5.21-13.2 18.75-13.2 18.75-5.8 4.59-5.8 21.07-5.8 21.07l-7.5 15.62c-4.3 13.34-0.8 30-0.8 30-5.8 0.42-5 6.88-5 6.88s-3.1 0.4-10.4 2.28c-7.3 1.87-5.9 13.34-5.9 13.34-2.3 1.25-2.1 4.16-2.1 4.16l0.3 10c-5 5.83-4.6 20.84-4.6 20.84-1.1 11.04 9.2 16.44 9.2 16.44 3.1 7.29-0.5 7.1-1.7 12.94-1.2 5.65 3.8 5.04 4.2 5-4 16.25-4 42.68-4 42.68-1.3 22.3 0 63.75 0 63.75-2.8 7.27-0.6 12.41-0.4 12.72 0 0 1.6 6.87 1 15.41s1.7 14.81 1.7 14.81l0.6 12.28c0 13.12 2.3 18.23 2.5 18.53l5.2 13.57c8.1 7.71 6-3.35 6-3.35l-4.3-13.12 0.2-7.72c0.1-0.46 0.2-0.79 0.3-1 0-0.03 0-0.07 0.1-0.09v-0.1c0-0.01 0.1-0.05 0.1-0.06v-0.06h0.1v-0.03h0.1s0.1 0.02 0.1 0.03v0.03s0.1 0.02 0.1 0.03v0.03c0.3 0.31 0.6 1.03 0.6 1.03-0.5 7.5 5.4 22.06 5.4 22.06l-1.3 4.82-4.8 5.81c-0.2 5.47-2.2 6.18-2.5 6.25-4.8 2.29-4.3 9.59-4.3 9.59-6.9 7.87-6.9 12.83-6.9 13.13l-19.2 46.65c-4.6 6.67-5.2 14.6-5.2 14.6-3.5 8.75-7.9 22.5-7.9 22.5-11 22.04-9.2 29.13-9 29.75v0.03c-4.6 8.33-5 22.72-5 22.72l0.7 47.9c-0.7 16.88 2.5 37.72 2.5 37.72l-1.3 75.63c1.3 39.59 2.3 79.39 2.3 79.39l-5.6 6.9c-5.5 0.8-6.2 6.9-6.3 7.2-5.4 1.9-3.5 9.4-3.5 9.4l0.2 13.4c0.4 8.7 17.7 7.5 17.7 7.5 28.5 0.4 31-12.8 31-12.8l0.5-9.7c2.2-3.4 2.9-11.3 2.9-11.3 4.8 5.4 10.6 3.1 10.6 3.1 14.6-3.1 13.5-21.4 13.5-21.4s2.5 0.2 3-3.3c0.4-3.6 6.2-11.7 6.2-11.7l-0.4-14.2c2.5-6 1.8-19.6 1.8-19.6l-0.8-34.36c-0.4-28.33-2.7-61.03-2.7-61.03 0.2-24.59-1.9-44.38-1.9-44.38 0.9-12.5 4.3-25.72 5.7-47.72 6.7-21.81 23.5-45.62 27.7-52.29 7.5-12.02 8.5-13.75 13.1-21.66 8.4-14.54 23.8-37.92 23.8-37.92 16.4-30 45.1-53.13 45.1-53.13 5.7 9.38 12.4 54.38 12.4 54.38 6.4 26.87 9.7 61.87 9.7 61.87l2.5 47.72-3.9 42.28c-3.6 10.21 0 60.85 0 60.85-16.6 33.43-4.2 46.47-3.8 46.87-3.1 4.17-8.7 21.47-8.7 21.47-4.2 12.55-3.2 51.25-3.2 51.25l3.6 2.1c-1.7 3.9-1.9 13.9-1.9 13.9 1.2 17.5 4.9 21.9 5.4 22.5 11.9 9.6 27.9 2.8 27.9 2.8 17.1-7.1 16.9-26.3 16.9-26.3l5.5 1.3c4.6 0.8 4.9-3.5 5-3.8l13.3-36.7c9.1-10.2 8.3-28.92 8.3-28.92-0.2-11.25 4.8-46.88 4.8-46.88l1.5-55.62c-1.3-37.09-4.8-90.85-4.8-90.85-1.5-26.04 1-60 1-60 0-21.66 5.9-65.84 5.9-65.84l14.7-3.31c4-0.42 6.1-2.94 6.1-2.94l8.5-12.5c4.2-1.88 4-8.53 4-8.53l3.7-29.16c3.6-8.88 1-16.41 0.9-16.87 0 0 0.6-66.68 0.4-80.22s-5-36.66-5-36.66 0.6-4.18 0.2-6.47c0.3-1.62 0.2-2.56 0-3.09 0-0.06 0-0.14-0.1-0.19v-0.06c0-0.03-0.1-0.09-0.1-0.13v-0.03s-0.1-0.02-0.1-0.03c0-0.02 0-0.04-0.1-0.06-0.1-0.06-0.2-0.11-0.2-0.13-0.1 0-0.1-0.02-0.1-0.03h-0.2l-0.1-3.75-0.3-17.09-0.2-11.66v-0.03c-0.4-0.43-2.8-3.6 0.9-12.06 3.9-9.17-0.9-21.03-0.9-21.03s-3.7-5.84-3.5-8.75c0.2-2.92-3.1-5.64-3.1-8.35 0-0.67-0.2-1.16-0.4-1.46-0.1-0.01-0.1-0.03-0.1-0.04v-0.03c0-0.02-0.1-0.07-0.1-0.09v-0.03c0-0.01-0.1-0.03-0.1-0.03 0-0.04-0.1-0.07-0.2-0.1v-0.03c-0.1 0-0.1-0.02-0.1-0.03h-0.3c-0.1 0.01-0.1 0.02-0.2 0.03-0.1 0.03-0.2 0.08-0.3 0.13-0.1 0.04-0.2 0.1-0.2 0.15 0 0.01-0.1 0.03-0.1 0.03-0.3 0.31-0.6 0.83-0.7 1.5 0 0.77-0.2 1.5-0.5 1.88v0.09c0 0.01-0.1 0.06-0.1 0.07v0.06c-0.1 0-0.1 0.02-0.1 0.03 0 0-0.1 0.02-0.1 0.03h-0.2v-0.03c0-0.01 0-0.03-0.1-0.03v-0.1c-0.1-0.02-0.1-0.06-0.1-0.09-0.3-0.46-0.6-1.5-0.8-3.34-0.6-5.42 1.4-7.93 3.1-11.47s-2.5-3.13-2.5-3.13l0.8-6.65c3.4-7.07 1.6-11.81 1.5-12.1l-5.6-9.78c1.6-8.07-3.1-11.07-3.4-11.25l-14.9-11.31c6.6 3.47 17 3.94 19 4-2.7-0.62-16.1-5.41-16.1-5.41-5.5-2.71-7.4-4.59-7.4-4.59s-10.8-13.73-12.6-17.06c-1.9-3.34 0.6-6.25 0.6-6.25s-0.6-4.39-1.9-5.22c-2.4-2.26-3.4-3.54-3.4-4.13v-0.15c0-0.01 0.1-0.05 0.1-0.07v-0.06s0-0.02 0.1-0.03v-0.03h0.1c0-0.01 0.1-0.03 0.1-0.03 1.8-0.26 7.2-16.53 7.2-16.53l0.8-1.88c8.4-8.31-1.5-30.62-1.5-30.62 0.7-3.96-1-10-1-10 1.3-3.54 1.2-4.79-1.5-16.25-2.4-10.41-5.6-12.07-6.2-12.28v-2.72c1.6-5.25-2.7-9.14-2.9-9.38l-5.2-13.56c-12.1-19.17-29.8-26.25-29.8-26.25s5.6 3.3-0.1-0.03c-5.1-3.05-13.1-7.31-36.2-11.22-2.3-0.4-4.5-0.59-6.5-0.59-0.3 0-0.7-0.01-1 0-0.1 0-0.2-0.01-0.4 0 0 0-0.1-0.01-0.2 0zm70.6 289.18c0 0.01 0.1 0.03 0.1 0.03v0.16c0 0.01 0.1 0.03 0.1 0.03v0.06c0.4 0.37 1.7 1.09 5.6 2.88 5.7 2.65 6.6 6.49 5.9 11.5-0.8 5.01 7 6.19 7 6.19l1.1 12.65c-0.3 5 5.1 5.6 5.4 5.63 6 0.14 7.9 3.18 8 3.37l4.5 34.91c1.5 24.01 10.4 62.91 10.4 62.91 4.2 16.49 5.1 32.7 5.6 37.12 0.2 2.69-0.7 3.54-1.4 3.78-0.4 0.12-0.7 0.08-0.8 0.06l-5.5-0.15-1.2-3.97c5.1-6.71 2-12.05 1.8-12.38-3.1-2.5-8.4-13.12-8.4-13.12 0-3.22-1.2-4.57-1.7-5-0.1-0.1-0.2-0.16-0.2-0.16-2.5-5.74 0.1-11.18 0.3-17.22 0.1-5.85-3.2-7.43-3.4-7.53-3.3 0-5.8-1.75-6.8-3.37s-3.1-1.94-3.1-1.94c-2.1-4.71-9-17.22-9-17.22-4.2-8.25-13.8-17.53-13.8-17.53-13.1-9.72-19.6-21.37-19.6-21.37 3.4-3.98 5.6-13.1 5.6-13.1 2.7-6.67 0.5-9.5 0.1-9.97-0.1-0.02-0.1-0.05-0.1-0.06l0.3-2.34c3-4 1.1-6.77 1-6.94l0.2-3.38c6 0.15 3.3-2.22 7.3-10.03 3.7-7.32 4.6-13.72 4.7-14.5zm-159.5 21.35c0-0.01 0.1 0 0.1 0h0.1c1.1-0.07 2.4 1.13 2.5 1.28-0.5 2.5 1.4 8.47 1.4 8.47l5.1 16.12c2.2 7.71 6.6 10.73 6.9 10.91 0.5 3.9-0.9 24.12-0.9 24.12-5.9 20.21-1.7 51.25-1.7 51.25-7.1 0.42-4.8 15.22-4.8 15.22 2.3 1.88 1.9 6.44 1.9 6.44-2.5 0.83-1.9 4.19-1.9 4.19l-8.5 6.65s-0.1-0.02-0.1-0.03v-0.06c-1.2-1.24-7.7-5.94-7.7-5.94-5.6-2.22-5.8-7.01-5.8-7.31-5.4-15.21-0.8-45-0.8-45l12.9-84.38c0.2-0.8 0.4-1.32 0.8-1.62 0-0.03 0.1-0.07 0.1-0.09 0.1-0.09 0.3-0.16 0.4-0.19v-0.03zm-1.3 164.56c1.2-0.08 3 0.05 3.2 1.41 0.4 2.06-3 4.06-3 4.06l-1.2-5.31c0-0.02 0.5-0.12 1-0.16zm202.7 9.22l5.4 6.47 0.1 0.03v0.03c0.5 0.45 2.5 2.95-0.7 9.53-3.4 7.14-6.1 7.34-6.3 7.34 0 0 2.8-21.35 0.6-23.12l0.9-0.28z"/>
          <path id="path4344" d="m1467.7 369.6s6.5-13.63-14.8-23.28-2.9-38.18-2.9-38.18 11.7-20.98 12.2-27.27c0.4-6.3 4.6 21.81 4.6 21.81s-12.2 19.09-12.4 26.86c-0.2 7.76 2.9 10.69 6.7 13.21 3.7 2.52 17.3 14.9 12.2 22.87s-8.5 9.75-8.5 9.75l2.9-5.77z" fill="#6a5acd"/>
          <path id="path4346" d="m1434.7 140.52s33.3 12.17 47.5 45.31 12.4 31.05 11.1 46.57-5.4 94.83-9.4 104.48-8 16.78 16 20.14-10 10.28-26.8-1.26-12.2-9.86-1.8-28.32-14.2-29.16-12.2-47.83-6-39.65-6-39.65 5.8-13.85-1.8-36.92l-16.6-62.52z" fill="#4169e1"/>
          <path id="path4348" d="m1444.9 146.18s5.5 21.82 10.2 30 18.6 27.69 23.5 33.15 2.2 3.98 2.2 12.17-0.2 4.82 9.8 11.95 14.2 7.98 9.8 21.4c0 0-4 8.39-13.4 17.2 0 0-6.2 5.67-2.6 8.19 3.5 2.51 8.6 6.92 14.9 7.97 6.2 1.05 9.7 2.93 9.7 2.93s-20.2 1.05-26.4-1.04c-6.2-2.1-27.1-11.33-14.2-20.98s30.6-19.93 21.3-27.48c-9.3-7.56-32.2-16.16-29.5-32.52s-21.8-46.57-21.8-46.57l-5.3-21.61s6.4 1.26 11.8 5.24z" fill="#00f"/>
          <path id="path4350" d="m1400.7 160.31s16.3-6.19 33.5 24.2 20 23.96 33.1 24.82c13 0.85 14.4-6.85 23.7-6.42s4.7-0.86-1.4-5.14l5.6 0.43s-1.4-12.84-14-11.13c-12.5 1.72-23.2-5.13-30.2-12.84-7-7.7-15.4-20.11-13.5-28.24 0 0-0.9-9.29-23.8-11.13-26.3-2.14-27.3 3.45-35.2 14.24 0 0 22.2 9.5 22.2 11.21z" fill="#000080"/>
          <path id="path4352" d="m1383.6 157.09s17.3 10.49 28.9 39.02c11.5 28.53 36.8 20.98 36.8 20.98s-17.3 2.1-27.5-16.78-13.8-30.21-13.8-30.21-0.9-9.23-18.6-19.3c-17.8-10.07-32.9 21.4-32.9 21.4s-4.4 12.58 0 23.91c4.5 11.33-11.1 26.44-11.1 26.44s-16.4 8.81-12.8 20.97c3.5 12.17-27.1 67.97-27.1 67.97s19.5-11.32 36.8-38.6c17.3-27.27 26.7-57.48 26.7-57.48s-2.3-13.42 3.5-18.04-8-31.47 11.1-40.28z" fill="#00f"/>
          <path id="path4354" d="m1355.9 193.18s-10.7 19.51-13.1 21.6-19.6 6.3-14 29.37l2-2.93 2 1.46s36.6-38.6 23.1-49.5z" fill="#000080"/>
          <path id="path4356" d="m1323.2 339.19s9.8 10.69 19.3 8.81-14.4-4.62-15.3-10.49c-0.9-5.88 0.3-9.44 0.3-9.44s5.1 14.26 21.5 15.52-7.3-3.78-7.8-5.66 8.4 5.87 13.6 6.29-21.6-13.01-19.6-18.88 11.1 5.87 16.4-10.7c5.4-16.57 5.8-37.34 12.5-43.01 6.6-5.66 6.9-13.42 6.9-13.42l-22.9 10.07-25.8 62.51 0.9 8.4z" fill="#4169e1"/>
          <path id="path4358" d="m1371.2 198.63s0.6 17.41 3.5 24.12c2.9 6.72 0.9 1.89 0.9 1.89s-2 5.88-0.9 8.6c1.1 2.73 5.6 21.61 5.6 21.61s-6 9.65-14.2 11.75-10.7-0.42-13.8 2.52c-3.1 2.93 0.2 10.07-5.3 30.21 0 0-7.8 13.42-17.1 20.76 0 0-5.3 9.45-7.1 21.82-1.8 12.38-7.3 15.32-7.3 15.32s5.5-7.56 6-30.21-1.2-16.99 7.1-24.97c8.2-7.97 13.1-56.01 13.1-56.01l29.5-47.41z" fill="#6a5acd"/>
        </g>
        <g id="g4360" font-family="Bitstream Vera Sans" transform="translate(26.868 23.408)">
          <flowRoot id="flowRoot4362" xml:space="preserve" font-size="12px" transform="translate(10.756 18.183)">
            <flowRegion id="flowRegion4364">
              <rect id="rect4366" y="-745.62" width="160.61" x="328.3" height="102.03"/>
            </flowRegion>
            <flowPara id="flowPara4368">Lorem Ipsum</flowPara>
            <flowPara id="flowPara4370"/>
          </flowRoot>
          <flowRoot id="flowRoot4372" xml:space="preserve" font-size="8px">
            <flowRegion id="flowRegion4374">
              <rect id="rect4376" y="-700.16" width="138.39" height="83.843" x="323.25"/>
            </flowRegion>
            <flowPara id="flowPara4378">This album is by somebody.</flowPara>
          </flowRoot>
        </g>
      </g>
      <g id="g5956" style="enable-background:new">
        <path id="rect5912" style="enable-background:accumulate" d="m987.9 558.49l321.5-30.65v321.48l-321.5-32.85v-257.98z" fill-rule="evenodd" stroke="#000" stroke-width="8.2076" fill="#fff"/>
        <flowRoot id="flowRoot5914" font-size="36px" xml:space="preserve" transform="matrix(.82076 .13365 0 .82076 780.57 1336.7)" font-family="Bitstream Vera Sans Mono" line-height="125%" fill="#000000">
          <flowRegion id="flowRegion5916">
            <rect id="rect5918" height="112.13" width="611.14" y="-745.62" x="328.3" fill="#000"/>
          </flowRegion>
          <flowPara id="flowPara5920">Lorem Ipsum</flowPara>
          <flowPara id="flowPara5922"/>
        </flowRoot>
        <path id="path5924" d="m1258.1 657.75c-3.7 0.64-7.3-1.19-8.4-4.33l-86.7 15.57c0 0.35-0.2 0.53-0.2 0.71l63.2 3.69c0.8-2.32 3.3-4.16 6-3.89 3.4 0.07 5.9 2.64 5.5 5.65-0.4 3.02-3.3 5.23-6.4 5.15-3-0.27-5.1-2.14-5.3-4.61l-63.2-3.69v0.88l82.2 25.35c1.9-2.88 5.6-4.41 9.4-3.29 4.1 1.29 6 5.29 4.5 9.04-1.6 3.93-6.1 5.84-10.2 4.55-3.5-1.12-5.5-4.24-4.9-7.61l-82.4-25.35c-0.2 0.18-0.2 0.36-0.4 0.37l51.7 31.76c2.1-1.65 5.1-2.1 7.4-0.76 2.7 1.68 3.3 5.02 1.4 7.55-1.8 2.53-5.7 3.18-8.2 1.49-2.4-1.34-3.2-4.14-2-6.47l-51.5-31.6c-0.4 0.37-0.6 0.55-1 0.74l56 59.7c3.4-1.69 7.3-1.28 9.8 1.47 2.7 2.91 2.2 7.34-1.2 10.09-3.3 2.58-8.4 2.21-11.1-0.71-2.4-2.58-2.2-6.29 0-9l-56-59.71c0 0.18 0 0.18-0.2 0.19l26.2 51.09c2.6-0.61 5.5 0.36 6.7 2.79 1.4 2.61 0 5.83-2.9 7.15-3.2 1.51-6.7 0.39-8.1-2.4-1.1-2.26-0.2-4.93 2-6.59l-26-51.27c-0.6 0.19-1 0.38-1.4 0.4l14.5 78.1c3.7 0.06 6.8 2.26 7.4 5.6 0.8 3.86-2.1 7.65-6.5 8.49-4.3 0.84-8.4-1.68-9.2-5.54-0.5-3.51 1.6-6.58 5.1-7.92l-14.4-78.11-0.2 0.01-6.1 57.03c2.5 0.8 4.5 2.86 4.1 5.52-0.2 3.01-3.1 5.21-6.5 4.96-3.3-0.07-5.8-2.64-5.4-5.83 0.4-2.48 2.5-4.49 5.2-4.75l6.3-57.04c-0.4-0.16-0.8 0.03-1.4-0.13l-30.9 75.63c3 1.67 4.5 5.15 3.1 8.37-1.5 3.76-6 5.66-10.1 4.55-4.1-1.28-6.3-5.45-4.7-9.21 1.3-3.22 5.1-5.1 8.6-4.68l31.3-75.99-0.2 0.01-37 47.57c2 1.88 2.2 4.52 0.6 6.69-2 2.53-5.7 3.17-8.4 1.49-2.8-1.68-3.3-5.01-1.4-7.37 1.8-2.17 4.7-2.97 7.3-1.99l36.8-47.56c-0.2-0.17-0.4-0.52-0.8-0.68l-68.5 52.95c1.7 2.95 0.9 6.68-2 8.89-3.3 2.57-8.4 2.2-11.1-0.71-2.8-2.92-2.4-7.52 1.1-10.1 3-2.21 7.1-2.16 9.8-0.31l68.7-52.96-0.2-0.17-57.7 25.26c0.6 2.46-0.6 5.14-3.3 6.29-3 1.32-6.5 0.19-7.9-2.59-1.3-2.6 0-5.82 3-7.15 2.5-1.14 5.6-0.35 7.2 1.54l57.7-25.44c0-0.17 0-0.53-0.2-0.7l-87.8 15.96c-0.2 3.18-2.8 6.26-6.5 6.91-4.3 0.66-8.4-1.69-9.2-5.72-0.8-3.86 2.2-7.66 6.7-8.33 3.7-0.82 7.2 1.19 8.4 4.16l87.9-15.78v-0.71l-63.1-3.52c-0.9 2.32-3.3 4.16-6.2 3.9-3.4-0.08-5.7-2.83-5.5-5.66 0.4-3.01 3.3-5.4 6.6-5.15 3 0.09 4.9 2.15 5.3 4.61l63.1 3.7c0-0.18 0-0.36 0.1-0.54l-83.3-25.67c-2 2.89-5.7 4.42-9.4 3.29-4.1-1.28-6.1-5.28-4.5-9.04 1.5-3.75 6-5.83 10.2-4.55 3.5 1.13 5.4 4.25 4.8 7.62l83.4 25.67c0.2-0.19 0.2-0.54 0.4-0.72l-51.7-31.77c-1.9 1.65-5 2.1-7.4 0.76-2.7-1.68-3.3-5.02-1.4-7.55 2-2.53 5.7-3.17 8.5-1.49 2.3 1.34 2.9 4.14 1.9 6.47l51.5 31.6s0-0.18 0.2-0.19l-56.4-60.04c-3.3 1.51-7.2 1.11-9.8-1.46-2.7-2.92-2.3-7.52 1.2-10.1 3.3-2.58 8.4-2.38 11.2 0.54 2.3 2.75 2.1 6.46 0 9l56.1 60.22c0.4-0.36 0.6-0.54 1-0.73l-26-51.27c-2.8 0.61-5.7-0.36-6.9-2.62-1.3-2.78 0-6 3-7.32 3.1-1.34 6.6-0.21 8 2.4 1.2 2.43 0.2 5.11-2 6.59l26.3 51.26h0.1l-14.4-78.46c-3.8-0.06-6.9-2.09-7.7-5.59-0.6-3.87 2.4-7.67 6.7-8.5 4.3-0.67 8.4 1.85 9.2 5.71 0.6 3.34-1.8 6.59-5.1 7.93l14.5 78.1c0.4-0.18 0.8-0.02 1.2-0.03l6.2-57.04c-2.7-0.62-4.5-2.86-4.3-5.51 0.2-1.07 0.8-1.97 1.6-2.88 0-0.17 0.2-0.35 0.2-0.35 1.3-1.11 2.9-1.86 4.9-1.74 3.3 0.07 5.6 2.64 5.4 5.65-0.3 2.66-2.7 4.5-5.4 4.94l-6.1 57.03 0.2-0.01 31.1-75.46c-3.1-1.66-4.7-4.97-3.3-8.37 1.6-3.75 6.1-5.66 10.2-4.37 4.1 1.28 6.2 5.28 4.7 9.03-1.4 3.22-4.9 5.1-8.6 4.68l-31 75.45c0.2 0.17 0.6 0.34 1 0.5l36.8-47.56c-2-1.71-2.2-4.52-0.6-6.69 2-2.53 5.7-3.18 8.4-1.5 2.8 1.68 3.4 5.02 1.4 7.55-1.6 2.17-4.7 2.79-7.2 1.99l-36.6 47.2c0 0.18 0 0.36 0.2 0.35l67.7-52.22c-1.6-2.96-1-6.51 1.9-8.89 3.4-2.58 8.4-2.38 11.2 0.71 2.7 2.92 2.3 7.52-1.2 10.1-2.9 2.21-7 2.16-9.8 0.3l-67.7 52.23c0.2 0.35 0.4 0.52 0.6 0.69l57.5-25.26c-0.6-2.45 0.8-5.14 3.4-6.28 3.1-1.33 6.6-0.21 8 2.4 0.4 0.87 0.4 1.75 0.4 2.64 0 0.35 0 0.53-0.2 0.88-0.4 1.61-1.4 3.05-3.3 3.81-2.6 1.14-5.5 0.35-7.1-1.54l-57.9 25.44c0.2 0.17 0.2 0.35 0.2 0.53l86.9-15.58c0.2-3.36 2.7-6.26 6.4-6.9 4.3-0.84 8.4 1.68 9.2 5.54 0.6 3.86-2.3 7.66-6.6 8.5z" fill-rule="evenodd" fill="#1f1a17" class="fil2"/>
      </g>
      <g id="g3796" style="enable-background:new" transform="translate(400.86 1455.5)">
        <rect id="rect3798" style="enable-background:accumulate" fill-rule="evenodd" height="195.97" width="195.97" y="-977.95" x="307.09" fill="#ce5c00"/>
        <g id="g3800" fill-rule="evenodd" transform="matrix(-.15846 0 0 .15846 606.59 -973.24)">
          <path id="path3802" d="m1293.4 99.188c-12.1 1.012-19.2 13.932-19.2 13.932-27.3 13.96-21.7 41.26-21.7 41.26-2.1 7.91-13.1 24.37-13.1 24.37-16.7 7.74-12.1 24.16-12.1 24.16l2.3 2.09c-2.6-8.88 1.2-6.03 1.4-5.84v0.09c0 1.53 5.5 5.53 5.5 5.53l5.8-1.78c-10.9 4.49-10 10.87-9.8 11.88 3-6.53 7.2-3.6 7.5-3.41-7.4 3.59-13.4 13.7-14.4 15.53 4.1-4.64 13.4-7.41 13.4-7.41l-4.8 4.38c-11.7 3.33-12.7 19.56-12.7 19.56l-11.1 5.63c-14 5.2-13.1 18.75-13.1 18.75-5.9 4.58-5.8 21.06-5.8 21.06l-7.5 15.62c-4.4 13.34-0.9 30-0.9 30-5.8 0.42-5 6.88-5 6.88s-3.1 0.41-10.4 2.28-5.8 13.34-5.8 13.34c-2.3 1.25-2.1 4.16-2.1 4.16l0.2 10c-5 5.83-4.6 20.84-4.6 20.84-1 11.05 9.2 16.44 9.2 16.44 3.1 7.29-0.4 7.11-1.7 12.94-1.2 5.65 3.9 5.04 4.2 5-4 16.25-4 42.69-4 42.69-1.2 22.29 0 63.75 0 63.75-2.8 7.26-0.5 12.4-0.4 12.71 0 0 1.7 6.87 1.1 15.41-0.7 8.54 1.6 14.81 1.6 14.81l0.6 12.28c0 13.12 2.4 18.23 2.5 18.54l5.3 13.56c8.1 7.71 6-3.34 6-3.34l-4.4-13.13 0.2-7.72c0.1-0.46 0.2-0.79 0.3-1 0.1-0.03 0.1-0.07 0.1-0.09 0-0.03 0-0.07 0.1-0.1v-0.06l0.1-0.03v-0.06h0.2v0.03s0.1 0.02 0.1 0.03v0.03c0 0.01 0.1 0.03 0.1 0.03 0.3 0.31 0.5 1.03 0.5 1.03-0.4 7.5 5.4 22.07 5.4 22.07l-1.3 4.81-4.7 5.81c-0.2 5.47-2.3 6.18-2.5 6.25-4.8 2.29-4.4 9.6-4.4 9.6-6.9 7.87-6.9 12.82-6.9 13.12l-19.2 46.66c-4.6 6.66-5.2 14.59-5.2 14.59-3.5 8.75-7.9 22.5-7.9 22.5-10.9 22.04-9.1 29.13-8.9 29.75v0.03c-4.6 8.33-5 22.72-5 22.72l0.6 47.91c-0.6 16.87 2.5 37.72 2.5 37.72l-1.3 75.62c1.3 39.58 2.3 79.4 2.3 79.4l-5.6 6.8c-5.4 0.9-6.2 7-6.2 7.3-5.5 1.9-3.6 9.4-3.6 9.4l0.2 13.3c0.4 8.8 17.7 7.6 17.7 7.6 28.6 0.4 31.1-12.8 31.1-12.8l0.4-9.8c2.3-3.3 2.9-11.2 2.9-11.2 4.8 5.4 10.6 3.1 10.6 3.1 14.6-3.1 13.6-21.4 13.6-21.4s2.5 0.2 2.9-3.4c0.4-3.5 6.2-11.6 6.2-11.6l-0.4-14.2c2.5-6.04 1.9-19.59 1.9-19.59l-0.8-34.38c-0.4-28.33-2.7-61.03-2.7-61.03 0.2-24.58-1.9-44.38-1.9-44.38 0.8-12.5 4.3-25.71 5.6-47.71 6.7-21.82 23.6-45.63 27.7-52.3 7.5-12.01 8.5-13.75 13.1-21.66 8.4-14.54 23.8-37.92 23.8-37.92 16.5-30 45.2-53.12 45.2-53.12 5.6 9.37 12.3 54.37 12.3 54.37 6.5 26.88 9.8 61.88 9.8 61.88l2.5 47.72-4 42.28c-3.5 10.2 0 60.84 0 60.84-16.6 33.43-4.1 46.48-3.7 46.88-3.2 4.16-8.8 21.46-8.8 21.46-4.2 12.5-3.1 51.26-3.1 51.26l3.5 2.1c-1.6 3.9-1.8 13.9-1.8 13.9 1.1 17.5 4.8 21.9 5.3 22.5h0.1c11.8 9.6 27.9 2.7 27.9 2.7 17.1-7 16.9-26.2 16.9-26.2l5.4 1.2c4.6 0.9 5-3.4 5-3.7l13.3-36.69c9.2-10.21 8.3-28.94 8.3-28.94-0.2-11.25 4.8-46.88 4.8-46.88l1.5-55.62c-1.3-37.08-4.8-90.85-4.8-90.85-1.4-26.04 1.1-60 1.1-60 0-21.66 5.8-65.84 5.8-65.84l14.8-3.31c3.9-0.42 6-2.94 6-2.94l8.6-12.5c4.1-1.87 3.9-8.53 3.9-8.53l3.8-29.16c3.6-8.88 1-16.41 0.8-16.87 0 0 0.6-66.68 0.4-80.22s-5-36.66-5-36.66 0.6-4.17 0.2-6.47c0.4-1.62 0.3-2.56 0.1-3.09-0.1-0.06-0.1-0.13-0.1-0.19 0-0.01-0.1-0.05-0.1-0.06 0-0.03 0-0.09-0.1-0.12v-0.07c-0.1-0.02-0.1-0.04-0.1-0.06-0.1-0.06-0.2-0.1-0.3-0.12 0-0.01-0.1-0.03-0.1-0.03-0.1-0.01-0.1 0-0.1 0l-0.2-3.76-0.2-17.09-0.2-11.65c0-0.01-0.1-0.03-0.1-0.04-0.4-0.43-2.8-3.59 0.9-12.06 4-9.17-0.8-21.03-0.8-21.03s-3.8-5.83-3.6-8.75-3.1-5.64-3.1-8.34c0-0.68-0.2-1.17-0.4-1.47v-0.03c0-0.01-0.1-0.03-0.1-0.04 0-0.02 0-0.07-0.1-0.09v-0.03c0-0.01 0-0.03-0.1-0.03 0-0.04-0.1-0.07-0.1-0.09-0.1-0.01-0.1-0.03-0.1-0.04 0 0-0.1-0.02-0.1-0.03h-0.3c0 0.01-0.1 0.02-0.1 0.03-0.1 0.03-0.3 0.08-0.4 0.13 0 0.04-0.1 0.1-0.2 0.15v0.04c-0.4 0.3-0.7 0.82-0.7 1.5-0.1 0.77-0.3 1.49-0.5 1.87 0 0.03-0.1 0.07-0.1 0.09v0.07s-0.1 0.02-0.1 0.03v0.03c0 0.01-0.1 0.03-0.1 0.03v0.03h-0.2s-0.1-0.02-0.1-0.03v-0.03c0-0.02-0.1-0.07-0.1-0.09 0-0.03-0.1-0.07-0.1-0.1-0.3-0.46-0.6-1.5-0.8-3.34-0.6-5.42 1.5-7.93 3.1-11.47 1.7-3.54-2.5-3.13-2.5-3.13l0.9-6.65c3.4-7.07 1.5-11.81 1.4-12.09l-5.6-9.79c1.6-8.07-3.1-11.07-3.3-11.25l-14.9-11.31c6.5 3.47 17 3.94 18.9 4-2.7-0.62-16.1-5.41-16.1-5.41-5.4-2.7-7.3-4.59-7.3-4.59s-10.8-13.73-12.7-17.06 0.6-6.25 0.6-6.25-0.6-4.39-1.9-5.22c-2.4-2.26-3.3-3.54-3.4-4.12v-0.1c0-0.01 0.1-0.05 0.1-0.06v-0.1s0.1-0.02 0.1-0.03v-0.03s0.1-0.02 0.1-0.03 0.1-0.02 0.1-0.03c1.8-0.26 7.2-16.53 7.2-16.53l0.8-1.88c8.4-8.31-1.4-30.62-1.4-30.62 0.6-3.96-1.1-10-1.1-10 1.3-3.54 1.3-4.79-1.4-16.25-2.5-10.41-5.7-12.07-6.2-12.28 0-0.01-0.1-0.03-0.1-0.03v-2.69c1.6-5.25-2.6-9.14-2.9-9.38l-5.2-13.56c-12.1-19.17-29.8-26.25-29.8-26.25s5.6 3.31 0-0.03c-5.2-3.05-13.2-7.31-36.2-11.219-2.4-0.402-4.6-0.589-6.6-0.593-0.3-0.001-0.6-0.01-1 0-0.1 0.003-0.2-0.006-0.3 0-0.1 0.002-0.2-0.004-0.2 0zm70.6 289.19v0.12c0 0.01 0.1 0.05 0.1 0.06v0.06c0 0.01 0.1 0.03 0.1 0.04 0.4 0.36 1.6 1.08 5.5 2.87 5.8 2.65 6.7 6.49 5.9 11.5-0.7 5.01 7.1 6.19 7.1 6.19l1 12.66c-0.3 4.99 5.1 5.59 5.5 5.62 6 0.14 7.8 3.18 7.9 3.38l4.6 34.9c1.5 24.01 10.3 62.91 10.3 62.91 4.3 16.5 5.2 32.7 5.6 37.12 0.3 2.7-0.6 3.54-1.4 3.78-0.3 0.12-0.7 0.08-0.8 0.07l-5.5-0.16-1.1-3.97c5.1-6.71 1.9-12.05 1.7-12.37-3.1-2.51-8.4-13.13-8.4-13.13 0-3.22-1.2-4.57-1.7-5-0.1-0.1-0.2-0.15-0.2-0.15-2.5-5.75 0.2-11.18 0.3-17.22 0.1-5.85-3.2-7.44-3.4-7.54-3.2 0-5.7-1.75-6.8-3.37-1-1.62-3.1-1.94-3.1-1.94-2-4.71-8.9-17.22-8.9-17.22-4.3-8.25-13.9-17.53-13.9-17.53-13.1-9.72-19.6-21.37-19.6-21.37 3.4-3.98 5.6-13.1 5.6-13.1 2.7-6.67 0.5-9.5 0.1-9.97 0-0.02-0.1-0.05-0.1-0.06l0.3-2.34c3-4 1.2-6.77 1.1-6.94l0.1-3.37c6 0.14 3.4-2.23 7.3-10.03 3.8-7.32 4.7-13.73 4.8-14.5zm-159.5 21.34h0.2c1.1-0.07 2.3 1.13 2.5 1.28-0.6 2.5 1.3 8.47 1.3 8.47l5.2 16.12c2.1 7.71 6.5 10.73 6.8 10.91 0.5 3.9-0.9 24.12-0.9 24.12-5.8 20.21-1.7 51.26-1.7 51.26-7.1 0.41-4.8 15.21-4.8 15.21 2.3 1.88 1.9 6.44 1.9 6.44-2.5 0.83-1.9 4.19-1.9 4.19l-8.5 6.66v-0.04c-0.1-0.01-0.1-0.05-0.1-0.06-1.2-1.24-7.6-5.94-7.6-5.94-5.7-2.22-5.9-7.01-5.9-7.31-5.4-15.21-0.8-45-0.8-45l12.9-84.37c0.2-0.81 0.5-1.33 0.8-1.63 0-0.03 0.1-0.07 0.1-0.09 0.2-0.09 0.3-0.15 0.4-0.19l0.1-0.03zm-1.3 164.56c1.2-0.08 2.9 0.05 3.1 1.41 0.4 2.06-3 4.06-3 4.06l-1.2-5.31c0.1-0.02 0.5-0.12 1.1-0.16zm202.6 9.22l5.5 6.47v0.06c0.5 0.46 2.5 2.95-0.6 9.53-3.4 7.14-6.2 7.34-6.4 7.35 0 0 2.8-21.36 0.6-23.13l0.9-0.28z"/>
          <g id="g3804" transform="matrix(1.0654 0 0 1.007 -82.096 .038477)">
            <path id="path3806" d="m1356 331.25s6.1-13.54-13.9-23.13c-20-9.58-2.7-37.91-2.7-37.91s11-20.84 11.4-27.09c0.5-6.25 4.4 21.67 4.4 21.67s-11.4 18.96-11.7 26.67c-0.2 7.71 2.8 10.62 6.3 13.12s16.2 14.79 11.5 22.71c-4.8 7.92-8 9.69-8 9.69l2.7-5.73z" fill="#9a773d"/>
            <path id="path3808" d="m1325 103.75s31.3 12.08 44.6 45 11.7 30.83 10.4 46.25-5 94.17-8.7 103.75c-3.8 9.58-7.5 16.67 15 20 0 0-9.4 10.21-25.3-1.25 0 0-11.4-9.79-1.6-28.13 0 0-13.4-28.95-11.5-47.5 1.9-18.54-5.6-39.37-5.6-39.37s5.4-13.75-1.7-36.67l-15.6-62.08z" fill="#e4cd85"/>
            <path id="path3810" d="m1334.6 109.37s5.2 21.67 9.6 29.8 17.5 27.5 22.1 32.91 2 3.96 2 12.09-0.2 4.79 9.2 11.87 13.3 7.92 9.2 21.25c0 0-3.8 8.33-12.5 17.08 0 0-5.9 5.63-2.5 8.13 3.3 2.5 8.1 6.87 13.9 7.92 5.9 1.04 9.2 2.91 9.2 2.91s-19 1.04-24.8-1.04-25.4-11.25-13.3-20.83c12.1-9.59 28.7-19.79 20-27.29-8.8-7.5-30.2-16.05-27.7-32.3s-20.5-46.25-20.5-46.25l-5-21.45s6.1 1.25 11.1 5.2z" fill="#c7a153"/>
            <path id="path3812" d="m1293.1 123.41s15.3-6.15 31.5 24.02 18.8 23.8 31 24.65 13.6-6.8 22.3-6.37c8.7 0.42 4.4-0.85-1.3-5.1l5.2 0.42s-1.3-12.75-13.1-11.05-21.8-5.1-28.4-12.75c-6.5-7.65-14.4-19.97-12.7-28.05 0 0-0.8-9.221-22.3-11.047-24.7-2.125-25.6 3.427-33 14.137 0 0 20.8 9.44 20.8 11.14z" fill="#d4bd81"/>
            <path id="path3814" d="m1277.1 120.21s16.2 10.41 27.1 38.75c10.8 28.33 34.6 20.83 34.6 20.83s-16.3 2.08-25.9-16.67-12.9-30-12.9-30-0.8-9.16-17.5-19.16-30.8 21.25-30.8 21.25-4.2 12.5 0 23.75c4.1 11.25-10.4 26.25-10.4 26.25s-15.5 8.75-12.1 20.83c3.3 12.08-25.4 67.5-25.4 67.5s18.3-11.25 34.5-38.33c16.3-27.09 25-57.09 25-57.09s-2-13.33 3.4-17.91-7.5-31.25 10.4-40z" fill="#edd18e"/>
            <path id="path3816" d="m1251 156.04s-10 19.38-12.2 21.46-18.4 6.25-13.2 29.17l1.9-2.92 1.9 1.46s34.4-38.34 21.6-49.17z" fill="#f4e2b3"/>
            <path id="path3818" d="m1220.4 301.04s9.2 10.63 18.1 8.75-13.5-4.58-14.3-10.42c-0.9-5.83 0.2-9.37 0.2-9.37s4.8 14.17 20.2 15.42-6.9-3.75-7.3-5.63 7.9 5.83 12.7 6.25-20.2-12.92-18.3-18.75 10.4 5.83 15.4-10.62c5-16.46 5.4-37.09 11.7-42.71 6.2-5.63 6.4-13.34 6.4-13.34l-21.4 10-24.2 62.09 0.8 8.33z" fill="#b8934a"/>
            <path id="path3820" d="m1265.4 161.46s0.6 17.29 3.4 23.96c2.7 6.66 0.8 1.87 0.8 1.87s-1.9 5.83-0.8 8.54c1 2.71 5.2 21.46 5.2 21.46s-5.7 9.58-13.4 11.67-10-0.42-12.9 2.5c-2.9 2.91 0.2 10-5 30 0 0-7.3 13.33-16 20.62 0 0-5 9.38-6.7 21.67s-6.9 15.21-6.9 15.21 5.2-7.5 5.7-30-1.1-16.88 6.6-24.79c7.7-7.92 12.3-55.63 12.3-55.63l27.7-47.08z" fill="#8b6121"/>
          </g>
        </g>
        <g id="g3822" fill-rule="evenodd" fill="#8f5902">
          <rect id="rect3824" style="enable-background:accumulate" height="195.97" width="195.97" y="-977.95" x="503.09"/>
          <rect id="rect3826" style="enable-background:accumulate" height="195.97" width="195.97" y="-781.95" x="503.09"/>
        </g>
        <rect id="rect3828" style="enable-background:accumulate" fill-rule="evenodd" height="195.97" width="195.97" y="-781.95" x="307.09" fill="#f57900"/>
        <g id="g3830" fill-rule="evenodd" transform="matrix(.34255 0 0 .34255 129.45 -995.93)">
          <path id="path3832" d="m1398.4 135.2c-12 1.01-19.2 13.93-19.2 13.93-27.3 13.96-21.6 41.25-21.6 41.25-2.1 7.92-13.2 24.38-13.2 24.38-16.7 7.74-12.1 24.15-12.1 24.15l2.4 2.1c-2.7-8.88 1.1-6.03 1.4-5.85v0.1c0 1.53 5.4 5.53 5.4 5.53l5.8-1.78c-10.9 4.49-10 10.87-9.7 11.87 3-6.52 7.2-3.59 7.5-3.4-7.4 3.59-13.4 13.7-14.4 15.53 4-4.64 13.3-7.41 13.3-7.41l-4.8 4.38c-11.6 3.33-12.7 19.56-12.7 19.56l-11 5.62c-14 5.21-13.2 18.75-13.2 18.75-5.8 4.59-5.8 21.07-5.8 21.07l-7.5 15.62c-4.3 13.34-0.8 30-0.8 30-5.8 0.42-5 6.88-5 6.88s-3.1 0.4-10.4 2.28c-7.3 1.87-5.9 13.34-5.9 13.34-2.3 1.25-2.1 4.16-2.1 4.16l0.3 10c-5 5.83-4.6 20.84-4.6 20.84-1.1 11.04 9.2 16.44 9.2 16.44 3.1 7.29-0.5 7.1-1.7 12.94-1.2 5.65 3.8 5.04 4.2 5-4 16.25-4 42.68-4 42.68-1.3 22.3 0 63.75 0 63.75-2.8 7.27-0.6 12.41-0.4 12.72 0 0 1.6 6.87 1 15.41s1.7 14.81 1.7 14.81l0.6 12.28c0 13.12 2.3 18.23 2.5 18.53l5.2 13.57c8.1 7.71 6-3.35 6-3.35l-4.3-13.12 0.2-7.72c0.1-0.46 0.2-0.79 0.3-1 0-0.03 0-0.07 0.1-0.09v-0.1c0-0.01 0.1-0.05 0.1-0.06v-0.06h0.1v-0.03h0.1s0.1 0.02 0.1 0.03v0.03s0.1 0.02 0.1 0.03v0.03c0.3 0.31 0.6 1.03 0.6 1.03-0.5 7.5 5.4 22.06 5.4 22.06l-1.3 4.82-4.8 5.81c-0.2 5.47-2.2 6.18-2.5 6.25-4.8 2.29-4.3 9.59-4.3 9.59-6.9 7.87-6.9 12.83-6.9 13.13l-19.2 46.65c-4.6 6.67-5.2 14.6-5.2 14.6-3.5 8.75-7.9 22.5-7.9 22.5-11 22.04-9.2 29.13-9 29.75v0.03c-4.6 8.33-5 22.72-5 22.72l0.7 47.9c-0.7 16.88 2.5 37.72 2.5 37.72l-1.3 75.63c1.3 39.59 2.3 79.39 2.3 79.39l-5.6 6.9c-5.5 0.8-6.2 6.9-6.3 7.2-5.4 1.9-3.5 9.4-3.5 9.4l0.2 13.4c0.4 8.7 17.7 7.5 17.7 7.5 28.5 0.4 31-12.8 31-12.8l0.5-9.7c2.2-3.4 2.9-11.3 2.9-11.3 4.8 5.4 10.6 3.1 10.6 3.1 14.6-3.1 13.5-21.4 13.5-21.4s2.5 0.2 3-3.3c0.4-3.6 6.2-11.7 6.2-11.7l-0.4-14.2c2.5-6 1.8-19.6 1.8-19.6l-0.8-34.36c-0.4-28.33-2.7-61.03-2.7-61.03 0.2-24.59-1.9-44.38-1.9-44.38 0.9-12.5 4.3-25.72 5.7-47.72 6.7-21.81 23.5-45.62 27.7-52.29 7.5-12.02 8.5-13.75 13.1-21.66 8.4-14.54 23.8-37.92 23.8-37.92 16.4-30 45.1-53.13 45.1-53.13 5.7 9.38 12.4 54.38 12.4 54.38 6.4 26.87 9.7 61.87 9.7 61.87l2.5 47.72-3.9 42.28c-3.6 10.21 0 60.85 0 60.85-16.6 33.43-4.2 46.47-3.8 46.87-3.1 4.17-8.7 21.47-8.7 21.47-4.2 12.55-3.2 51.25-3.2 51.25l3.6 2.1c-1.7 3.9-1.9 13.9-1.9 13.9 1.2 17.5 4.9 21.9 5.4 22.5 11.9 9.6 27.9 2.8 27.9 2.8 17.1-7.1 16.9-26.3 16.9-26.3l5.5 1.3c4.6 0.8 4.9-3.5 5-3.8l13.3-36.7c9.1-10.2 8.3-28.92 8.3-28.92-0.2-11.25 4.8-46.88 4.8-46.88l1.5-55.62c-1.3-37.09-4.8-90.85-4.8-90.85-1.5-26.04 1-60 1-60 0-21.66 5.9-65.84 5.9-65.84l14.7-3.31c4-0.42 6.1-2.94 6.1-2.94l8.5-12.5c4.2-1.88 4-8.53 4-8.53l3.7-29.16c3.6-8.88 1-16.41 0.9-16.87 0 0 0.6-66.68 0.4-80.22s-5-36.66-5-36.66 0.6-4.18 0.2-6.47c0.3-1.62 0.2-2.56 0-3.09 0-0.06 0-0.14-0.1-0.19v-0.06c0-0.03-0.1-0.09-0.1-0.13v-0.03s-0.1-0.02-0.1-0.03c0-0.02 0-0.04-0.1-0.06-0.1-0.06-0.2-0.11-0.2-0.13-0.1 0-0.1-0.02-0.1-0.03h-0.2l-0.1-3.75-0.3-17.09-0.2-11.66v-0.03c-0.4-0.43-2.8-3.6 0.9-12.06 3.9-9.17-0.9-21.03-0.9-21.03s-3.7-5.84-3.5-8.75c0.2-2.92-3.1-5.64-3.1-8.35 0-0.67-0.2-1.16-0.4-1.46-0.1-0.01-0.1-0.03-0.1-0.04v-0.03c0-0.02-0.1-0.07-0.1-0.09v-0.03c0-0.01-0.1-0.03-0.1-0.03 0-0.04-0.1-0.07-0.2-0.1v-0.03c-0.1 0-0.1-0.02-0.1-0.03h-0.3c-0.1 0.01-0.1 0.02-0.2 0.03-0.1 0.03-0.2 0.08-0.3 0.13-0.1 0.04-0.2 0.1-0.2 0.15 0 0.01-0.1 0.03-0.1 0.03-0.3 0.31-0.6 0.83-0.7 1.5 0 0.77-0.2 1.5-0.5 1.88v0.09c0 0.01-0.1 0.06-0.1 0.07v0.06c-0.1 0-0.1 0.02-0.1 0.03 0 0-0.1 0.02-0.1 0.03h-0.2v-0.03c0-0.01 0-0.03-0.1-0.03v-0.1c-0.1-0.02-0.1-0.06-0.1-0.09-0.3-0.46-0.6-1.5-0.8-3.34-0.6-5.42 1.4-7.93 3.1-11.47s-2.5-3.13-2.5-3.13l0.8-6.65c3.4-7.07 1.6-11.81 1.5-12.1l-5.6-9.78c1.6-8.07-3.1-11.07-3.4-11.25l-14.9-11.31c6.6 3.47 17 3.94 19 4-2.7-0.62-16.1-5.41-16.1-5.41-5.5-2.71-7.4-4.59-7.4-4.59s-10.8-13.73-12.6-17.06c-1.9-3.34 0.6-6.25 0.6-6.25s-0.6-4.39-1.9-5.22c-2.4-2.26-3.4-3.54-3.4-4.13v-0.15c0-0.01 0.1-0.05 0.1-0.07v-0.06s0-0.02 0.1-0.03v-0.03h0.1c0-0.01 0.1-0.03 0.1-0.03 1.8-0.26 7.2-16.53 7.2-16.53l0.8-1.88c8.4-8.31-1.5-30.62-1.5-30.62 0.7-3.96-1-10-1-10 1.3-3.54 1.2-4.79-1.5-16.25-2.4-10.41-5.6-12.07-6.2-12.28v-2.72c1.6-5.25-2.7-9.14-2.9-9.38l-5.2-13.56c-12.1-19.17-29.8-26.25-29.8-26.25s5.6 3.3-0.1-0.03c-5.1-3.05-13.1-7.31-36.2-11.22-2.3-0.4-4.5-0.59-6.5-0.59-0.3 0-0.7-0.01-1 0-0.1 0-0.2-0.01-0.4 0 0 0-0.1-0.01-0.2 0zm70.6 289.18c0 0.01 0.1 0.03 0.1 0.03v0.16c0 0.01 0.1 0.03 0.1 0.03v0.06c0.4 0.37 1.7 1.09 5.6 2.88 5.7 2.65 6.6 6.49 5.9 11.5-0.8 5.01 7 6.19 7 6.19l1.1 12.65c-0.3 5 5.1 5.6 5.4 5.63 6 0.14 7.9 3.18 8 3.37l4.5 34.91c1.5 24.01 10.4 62.91 10.4 62.91 4.2 16.49 5.1 32.7 5.6 37.12 0.2 2.69-0.7 3.54-1.4 3.78-0.4 0.12-0.7 0.08-0.8 0.06l-5.5-0.15-1.2-3.97c5.1-6.71 2-12.05 1.8-12.38-3.1-2.5-8.4-13.12-8.4-13.12 0-3.22-1.2-4.57-1.7-5-0.1-0.1-0.2-0.16-0.2-0.16-2.5-5.74 0.1-11.18 0.3-17.22 0.1-5.85-3.2-7.43-3.4-7.53-3.3 0-5.8-1.75-6.8-3.37s-3.1-1.94-3.1-1.94c-2.1-4.71-9-17.22-9-17.22-4.2-8.25-13.8-17.53-13.8-17.53-13.1-9.72-19.6-21.37-19.6-21.37 3.4-3.98 5.6-13.1 5.6-13.1 2.7-6.67 0.5-9.5 0.1-9.97-0.1-0.02-0.1-0.05-0.1-0.06l0.3-2.34c3-4 1.1-6.77 1-6.94l0.2-3.38c6 0.15 3.3-2.22 7.3-10.03 3.7-7.32 4.6-13.72 4.7-14.5zm-159.5 21.35c0-0.01 0.1 0 0.1 0h0.1c1.1-0.07 2.4 1.13 2.5 1.28-0.5 2.5 1.4 8.47 1.4 8.47l5.1 16.12c2.2 7.71 6.6 10.73 6.9 10.91 0.5 3.9-0.9 24.12-0.9 24.12-5.9 20.21-1.7 51.25-1.7 51.25-7.1 0.42-4.8 15.22-4.8 15.22 2.3 1.88 1.9 6.44 1.9 6.44-2.5 0.83-1.9 4.19-1.9 4.19l-8.5 6.65s-0.1-0.02-0.1-0.03v-0.06c-1.2-1.24-7.7-5.94-7.7-5.94-5.6-2.22-5.8-7.01-5.8-7.31-5.4-15.21-0.8-45-0.8-45l12.9-84.38c0.2-0.8 0.4-1.32 0.8-1.62 0-0.03 0.1-0.07 0.1-0.09 0.1-0.09 0.3-0.16 0.4-0.19v-0.03zm-1.3 164.56c1.2-0.08 3 0.05 3.2 1.41 0.4 2.06-3 4.06-3 4.06l-1.2-5.31c0-0.02 0.5-0.12 1-0.16zm202.7 9.22l5.4 6.47 0.1 0.03v0.03c0.5 0.45 2.5 2.95-0.7 9.53-3.4 7.14-6.1 7.34-6.3 7.34 0 0 2.8-21.35 0.6-23.12l0.9-0.28z"/>
          <path id="path3834" d="m1467.7 369.6s6.5-13.63-14.8-23.28-2.9-38.18-2.9-38.18 11.7-20.98 12.2-27.27c0.4-6.3 4.6 21.81 4.6 21.81s-12.2 19.09-12.4 26.86c-0.2 7.76 2.9 10.69 6.7 13.21 3.7 2.52 17.3 14.9 12.2 22.87s-8.5 9.75-8.5 9.75l2.9-5.77z" fill="#6a5acd"/>
          <path id="path3836" d="m1434.7 140.52s33.3 12.17 47.5 45.31 12.4 31.05 11.1 46.57-5.4 94.83-9.4 104.48-8 16.78 16 20.14-10 10.28-26.8-1.26-12.2-9.86-1.8-28.32-14.2-29.16-12.2-47.83-6-39.65-6-39.65 5.8-13.85-1.8-36.92l-16.6-62.52z" fill="#4169e1"/>
          <path id="path3838" d="m1444.9 146.18s5.5 21.82 10.2 30 18.6 27.69 23.5 33.15 2.2 3.98 2.2 12.17-0.2 4.82 9.8 11.95 14.2 7.98 9.8 21.4c0 0-4 8.39-13.4 17.2 0 0-6.2 5.67-2.6 8.19 3.5 2.51 8.6 6.92 14.9 7.97 6.2 1.05 9.7 2.93 9.7 2.93s-20.2 1.05-26.4-1.04c-6.2-2.1-27.1-11.33-14.2-20.98s30.6-19.93 21.3-27.48c-9.3-7.56-32.2-16.16-29.5-32.52s-21.8-46.57-21.8-46.57l-5.3-21.61s6.4 1.26 11.8 5.24z" fill="#00f"/>
          <path id="path3840" d="m1400.7 160.31s16.3-6.19 33.5 24.2 20 23.96 33.1 24.82c13 0.85 14.4-6.85 23.7-6.42s4.7-0.86-1.4-5.14l5.6 0.43s-1.4-12.84-14-11.13c-12.5 1.72-23.2-5.13-30.2-12.84-7-7.7-15.4-20.11-13.5-28.24 0 0-0.9-9.29-23.8-11.13-26.3-2.14-27.3 3.45-35.2 14.24 0 0 22.2 9.5 22.2 11.21z" fill="#000080"/>
          <path id="path3842" d="m1383.6 157.09s17.3 10.49 28.9 39.02c11.5 28.53 36.8 20.98 36.8 20.98s-17.3 2.1-27.5-16.78-13.8-30.21-13.8-30.21-0.9-9.23-18.6-19.3c-17.8-10.07-32.9 21.4-32.9 21.4s-4.4 12.58 0 23.91c4.5 11.33-11.1 26.44-11.1 26.44s-16.4 8.81-12.8 20.97c3.5 12.17-27.1 67.97-27.1 67.97s19.5-11.32 36.8-38.6c17.3-27.27 26.7-57.48 26.7-57.48s-2.3-13.42 3.5-18.04-8-31.47 11.1-40.28z" fill="#00f"/>
          <path id="path3844" d="m1355.9 193.18s-10.7 19.51-13.1 21.6-19.6 6.3-14 29.37l2-2.93 2 1.46s36.6-38.6 23.1-49.5z" fill="#000080"/>
          <path id="path3846" d="m1323.2 339.19s9.8 10.69 19.3 8.81-14.4-4.62-15.3-10.49c-0.9-5.88 0.3-9.44 0.3-9.44s5.1 14.26 21.5 15.52-7.3-3.78-7.8-5.66 8.4 5.87 13.6 6.29-21.6-13.01-19.6-18.88 11.1 5.87 16.4-10.7c5.4-16.57 5.8-37.34 12.5-43.01 6.6-5.66 6.9-13.42 6.9-13.42l-22.9 10.07-25.8 62.51 0.9 8.4z" fill="#4169e1"/>
          <path id="path3848" d="m1371.2 198.63s0.6 17.41 3.5 24.12c2.9 6.72 0.9 1.89 0.9 1.89s-2 5.88-0.9 8.6c1.1 2.73 5.6 21.61 5.6 21.61s-6 9.65-14.2 11.75-10.7-0.42-13.8 2.52c-3.1 2.93 0.2 10.07-5.3 30.21 0 0-7.8 13.42-17.1 20.76 0 0-5.3 9.45-7.1 21.82-1.8 12.38-7.3 15.32-7.3 15.32s5.5-7.56 6-30.21-1.2-16.99 7.1-24.97c8.2-7.97 13.1-56.01 13.1-56.01l29.5-47.41z" fill="#6a5acd"/>
        </g>
        <g id="g3850" font-family="Bitstream Vera Sans" transform="translate(26.868 23.408)">
          <flowRoot id="flowRoot3852" xml:space="preserve" font-size="12px" transform="translate(10.756 18.183)">
            <flowRegion id="flowRegion3854">
              <rect id="rect3856" y="-745.62" x="328.3" width="160.61" height="102.03"/>
            </flowRegion>
            <flowPara id="flowPara3858">Lorem Ipsum</flowPara>
            <flowPara id="flowPara3860"/>
          </flowRoot>
          <flowRoot id="flowRoot3862" xml:space="preserve" font-size="8px">
            <flowRegion id="flowRegion3864">
              <rect id="rect3866" y="-700.16" width="138.39" height="83.843" x="323.25"/>
            </flowRegion>
            <flowPara id="flowPara3868">This album is by somebody.</flowPara>
          </flowRoot>
        </g>
      </g>
      <g id="g3870" style="enable-background:new" transform="matrix(0 -1 1 0 1685.9 1565.5)" fill="url(#linearGradient6362)">
        <rect id="rect3872" style="enable-background:accumulate" fill-rule="evenodd" height="195.97" width="195.97" y="-977.95" x="307.09"/>
        <g id="g3874" fill-rule="evenodd" transform="matrix(-.15846 0 0 .15846 606.59 -973.24)">
          <path id="path3876" d="m1293.4 99.188c-12.1 1.012-19.2 13.932-19.2 13.932-27.3 13.96-21.7 41.26-21.7 41.26-2.1 7.91-13.1 24.37-13.1 24.37-16.7 7.74-12.1 24.16-12.1 24.16l2.3 2.09c-2.6-8.88 1.2-6.03 1.4-5.84v0.09c0 1.53 5.5 5.53 5.5 5.53l5.8-1.78c-10.9 4.49-10 10.87-9.8 11.88 3-6.53 7.2-3.6 7.5-3.41-7.4 3.59-13.4 13.7-14.4 15.53 4.1-4.64 13.4-7.41 13.4-7.41l-4.8 4.38c-11.7 3.33-12.7 19.56-12.7 19.56l-11.1 5.63c-14 5.2-13.1 18.75-13.1 18.75-5.9 4.58-5.8 21.06-5.8 21.06l-7.5 15.62c-4.4 13.34-0.9 30-0.9 30-5.8 0.42-5 6.88-5 6.88s-3.1 0.41-10.4 2.28-5.8 13.34-5.8 13.34c-2.3 1.25-2.1 4.16-2.1 4.16l0.2 10c-5 5.83-4.6 20.84-4.6 20.84-1 11.05 9.2 16.44 9.2 16.44 3.1 7.29-0.4 7.11-1.7 12.94-1.2 5.65 3.9 5.04 4.2 5-4 16.25-4 42.69-4 42.69-1.2 22.29 0 63.75 0 63.75-2.8 7.26-0.5 12.4-0.4 12.71 0 0 1.7 6.87 1.1 15.41-0.7 8.54 1.6 14.81 1.6 14.81l0.6 12.28c0 13.12 2.4 18.23 2.5 18.54l5.3 13.56c8.1 7.71 6-3.34 6-3.34l-4.4-13.13 0.2-7.72c0.1-0.46 0.2-0.79 0.3-1 0.1-0.03 0.1-0.07 0.1-0.09 0-0.03 0-0.07 0.1-0.1v-0.06l0.1-0.03v-0.06h0.2v0.03s0.1 0.02 0.1 0.03v0.03c0 0.01 0.1 0.03 0.1 0.03 0.3 0.31 0.5 1.03 0.5 1.03-0.4 7.5 5.4 22.07 5.4 22.07l-1.3 4.81-4.7 5.81c-0.2 5.47-2.3 6.18-2.5 6.25-4.8 2.29-4.4 9.6-4.4 9.6-6.9 7.87-6.9 12.82-6.9 13.12l-19.2 46.66c-4.6 6.66-5.2 14.59-5.2 14.59-3.5 8.75-7.9 22.5-7.9 22.5-10.9 22.04-9.1 29.13-8.9 29.75v0.03c-4.6 8.33-5 22.72-5 22.72l0.6 47.91c-0.6 16.87 2.5 37.72 2.5 37.72l-1.3 75.62c1.3 39.58 2.3 79.4 2.3 79.4l-5.6 6.8c-5.4 0.9-6.2 7-6.2 7.3-5.5 1.9-3.6 9.4-3.6 9.4l0.2 13.3c0.4 8.8 17.7 7.6 17.7 7.6 28.6 0.4 31.1-12.8 31.1-12.8l0.4-9.8c2.3-3.3 2.9-11.2 2.9-11.2 4.8 5.4 10.6 3.1 10.6 3.1 14.6-3.1 13.6-21.4 13.6-21.4s2.5 0.2 2.9-3.4c0.4-3.5 6.2-11.6 6.2-11.6l-0.4-14.2c2.5-6.04 1.9-19.59 1.9-19.59l-0.8-34.38c-0.4-28.33-2.7-61.03-2.7-61.03 0.2-24.58-1.9-44.38-1.9-44.38 0.8-12.5 4.3-25.71 5.6-47.71 6.7-21.82 23.6-45.63 27.7-52.3 7.5-12.01 8.5-13.75 13.1-21.66 8.4-14.54 23.8-37.92 23.8-37.92 16.5-30 45.2-53.12 45.2-53.12 5.6 9.37 12.3 54.37 12.3 54.37 6.5 26.88 9.8 61.88 9.8 61.88l2.5 47.72-4 42.28c-3.5 10.2 0 60.84 0 60.84-16.6 33.43-4.1 46.48-3.7 46.88-3.2 4.16-8.8 21.46-8.8 21.46-4.2 12.5-3.1 51.26-3.1 51.26l3.5 2.1c-1.6 3.9-1.8 13.9-1.8 13.9 1.1 17.5 4.8 21.9 5.3 22.5h0.1c11.8 9.6 27.9 2.7 27.9 2.7 17.1-7 16.9-26.2 16.9-26.2l5.4 1.2c4.6 0.9 5-3.4 5-3.7l13.3-36.69c9.2-10.21 8.3-28.94 8.3-28.94-0.2-11.25 4.8-46.88 4.8-46.88l1.5-55.62c-1.3-37.08-4.8-90.85-4.8-90.85-1.4-26.04 1.1-60 1.1-60 0-21.66 5.8-65.84 5.8-65.84l14.8-3.31c3.9-0.42 6-2.94 6-2.94l8.6-12.5c4.1-1.87 3.9-8.53 3.9-8.53l3.8-29.16c3.6-8.88 1-16.41 0.8-16.87 0 0 0.6-66.68 0.4-80.22s-5-36.66-5-36.66 0.6-4.17 0.2-6.47c0.4-1.62 0.3-2.56 0.1-3.09-0.1-0.06-0.1-0.13-0.1-0.19 0-0.01-0.1-0.05-0.1-0.06 0-0.03 0-0.09-0.1-0.12v-0.07c-0.1-0.02-0.1-0.04-0.1-0.06-0.1-0.06-0.2-0.1-0.3-0.12 0-0.01-0.1-0.03-0.1-0.03-0.1-0.01-0.1 0-0.1 0l-0.2-3.76-0.2-17.09-0.2-11.65c0-0.01-0.1-0.03-0.1-0.04-0.4-0.43-2.8-3.59 0.9-12.06 4-9.17-0.8-21.03-0.8-21.03s-3.8-5.83-3.6-8.75-3.1-5.64-3.1-8.34c0-0.68-0.2-1.17-0.4-1.47v-0.03c0-0.01-0.1-0.03-0.1-0.04 0-0.02 0-0.07-0.1-0.09v-0.03c0-0.01 0-0.03-0.1-0.03 0-0.04-0.1-0.07-0.1-0.09-0.1-0.01-0.1-0.03-0.1-0.04 0 0-0.1-0.02-0.1-0.03h-0.3c0 0.01-0.1 0.02-0.1 0.03-0.1 0.03-0.3 0.08-0.4 0.13 0 0.04-0.1 0.1-0.2 0.15v0.04c-0.4 0.3-0.7 0.82-0.7 1.5-0.1 0.77-0.3 1.49-0.5 1.87 0 0.03-0.1 0.07-0.1 0.09v0.07s-0.1 0.02-0.1 0.03v0.03c0 0.01-0.1 0.03-0.1 0.03v0.03h-0.2s-0.1-0.02-0.1-0.03v-0.03c0-0.02-0.1-0.07-0.1-0.09 0-0.03-0.1-0.07-0.1-0.1-0.3-0.46-0.6-1.5-0.8-3.34-0.6-5.42 1.5-7.93 3.1-11.47 1.7-3.54-2.5-3.13-2.5-3.13l0.9-6.65c3.4-7.07 1.5-11.81 1.4-12.09l-5.6-9.79c1.6-8.07-3.1-11.07-3.3-11.25l-14.9-11.31c6.5 3.47 17 3.94 18.9 4-2.7-0.62-16.1-5.41-16.1-5.41-5.4-2.7-7.3-4.59-7.3-4.59s-10.8-13.73-12.7-17.06 0.6-6.25 0.6-6.25-0.6-4.39-1.9-5.22c-2.4-2.26-3.3-3.54-3.4-4.12v-0.1c0-0.01 0.1-0.05 0.1-0.06v-0.1s0.1-0.02 0.1-0.03v-0.03s0.1-0.02 0.1-0.03 0.1-0.02 0.1-0.03c1.8-0.26 7.2-16.53 7.2-16.53l0.8-1.88c8.4-8.31-1.4-30.62-1.4-30.62 0.6-3.96-1.1-10-1.1-10 1.3-3.54 1.3-4.79-1.4-16.25-2.5-10.41-5.7-12.07-6.2-12.28 0-0.01-0.1-0.03-0.1-0.03v-2.69c1.6-5.25-2.6-9.14-2.9-9.38l-5.2-13.56c-12.1-19.17-29.8-26.25-29.8-26.25s5.6 3.31 0-0.03c-5.2-3.05-13.2-7.31-36.2-11.219-2.4-0.402-4.6-0.589-6.6-0.593-0.3-0.001-0.6-0.01-1 0-0.1 0.003-0.2-0.006-0.3 0-0.1 0.002-0.2-0.004-0.2 0zm70.6 289.19v0.12c0 0.01 0.1 0.05 0.1 0.06v0.06c0 0.01 0.1 0.03 0.1 0.04 0.4 0.36 1.6 1.08 5.5 2.87 5.8 2.65 6.7 6.49 5.9 11.5-0.7 5.01 7.1 6.19 7.1 6.19l1 12.66c-0.3 4.99 5.1 5.59 5.5 5.62 6 0.14 7.8 3.18 7.9 3.38l4.6 34.9c1.5 24.01 10.3 62.91 10.3 62.91 4.3 16.5 5.2 32.7 5.6 37.12 0.3 2.7-0.6 3.54-1.4 3.78-0.3 0.12-0.7 0.08-0.8 0.07l-5.5-0.16-1.1-3.97c5.1-6.71 1.9-12.05 1.7-12.37-3.1-2.51-8.4-13.13-8.4-13.13 0-3.22-1.2-4.57-1.7-5-0.1-0.1-0.2-0.15-0.2-0.15-2.5-5.75 0.2-11.18 0.3-17.22 0.1-5.85-3.2-7.44-3.4-7.54-3.2 0-5.7-1.75-6.8-3.37-1-1.62-3.1-1.94-3.1-1.94-2-4.71-8.9-17.22-8.9-17.22-4.3-8.25-13.9-17.53-13.9-17.53-13.1-9.72-19.6-21.37-19.6-21.37 3.4-3.98 5.6-13.1 5.6-13.1 2.7-6.67 0.5-9.5 0.1-9.97 0-0.02-0.1-0.05-0.1-0.06l0.3-2.34c3-4 1.2-6.77 1.1-6.94l0.1-3.37c6 0.14 3.4-2.23 7.3-10.03 3.8-7.32 4.7-13.73 4.8-14.5zm-159.5 21.34h0.2c1.1-0.07 2.3 1.13 2.5 1.28-0.6 2.5 1.3 8.47 1.3 8.47l5.2 16.12c2.1 7.71 6.5 10.73 6.8 10.91 0.5 3.9-0.9 24.12-0.9 24.12-5.8 20.21-1.7 51.26-1.7 51.26-7.1 0.41-4.8 15.21-4.8 15.21 2.3 1.88 1.9 6.44 1.9 6.44-2.5 0.83-1.9 4.19-1.9 4.19l-8.5 6.66v-0.04c-0.1-0.01-0.1-0.05-0.1-0.06-1.2-1.24-7.6-5.94-7.6-5.94-5.7-2.22-5.9-7.01-5.9-7.31-5.4-15.21-0.8-45-0.8-45l12.9-84.37c0.2-0.81 0.5-1.33 0.8-1.63 0-0.03 0.1-0.07 0.1-0.09 0.2-0.09 0.3-0.15 0.4-0.19l0.1-0.03zm-1.3 164.56c1.2-0.08 2.9 0.05 3.1 1.41 0.4 2.06-3 4.06-3 4.06l-1.2-5.31c0.1-0.02 0.5-0.12 1.1-0.16zm202.6 9.22l5.5 6.47v0.06c0.5 0.46 2.5 2.95-0.6 9.53-3.4 7.14-6.2 7.34-6.4 7.35 0 0 2.8-21.36 0.6-23.13l0.9-0.28z"/>
          <g id="g3878" transform="matrix(1.0654 0 0 1.007 -82.096 .038477)">
            <path id="path3880" d="m1356 331.25s6.1-13.54-13.9-23.13c-20-9.58-2.7-37.91-2.7-37.91s11-20.84 11.4-27.09c0.5-6.25 4.4 21.67 4.4 21.67s-11.4 18.96-11.7 26.67c-0.2 7.71 2.8 10.62 6.3 13.12s16.2 14.79 11.5 22.71c-4.8 7.92-8 9.69-8 9.69l2.7-5.73z"/>
            <path id="path3882" d="m1325 103.75s31.3 12.08 44.6 45 11.7 30.83 10.4 46.25-5 94.17-8.7 103.75c-3.8 9.58-7.5 16.67 15 20 0 0-9.4 10.21-25.3-1.25 0 0-11.4-9.79-1.6-28.13 0 0-13.4-28.95-11.5-47.5 1.9-18.54-5.6-39.37-5.6-39.37s5.4-13.75-1.7-36.67l-15.6-62.08z"/>
            <path id="path3884" d="m1334.6 109.37s5.2 21.67 9.6 29.8 17.5 27.5 22.1 32.91 2 3.96 2 12.09-0.2 4.79 9.2 11.87 13.3 7.92 9.2 21.25c0 0-3.8 8.33-12.5 17.08 0 0-5.9 5.63-2.5 8.13 3.3 2.5 8.1 6.87 13.9 7.92 5.9 1.04 9.2 2.91 9.2 2.91s-19 1.04-24.8-1.04-25.4-11.25-13.3-20.83c12.1-9.59 28.7-19.79 20-27.29-8.8-7.5-30.2-16.05-27.7-32.3s-20.5-46.25-20.5-46.25l-5-21.45s6.1 1.25 11.1 5.2z"/>
            <path id="path3886" d="m1293.1 123.41s15.3-6.15 31.5 24.02 18.8 23.8 31 24.65 13.6-6.8 22.3-6.37c8.7 0.42 4.4-0.85-1.3-5.1l5.2 0.42s-1.3-12.75-13.1-11.05-21.8-5.1-28.4-12.75c-6.5-7.65-14.4-19.97-12.7-28.05 0 0-0.8-9.221-22.3-11.047-24.7-2.125-25.6 3.427-33 14.137 0 0 20.8 9.44 20.8 11.14z"/>
            <path id="path3888" d="m1277.1 120.21s16.2 10.41 27.1 38.75c10.8 28.33 34.6 20.83 34.6 20.83s-16.3 2.08-25.9-16.67-12.9-30-12.9-30-0.8-9.16-17.5-19.16-30.8 21.25-30.8 21.25-4.2 12.5 0 23.75c4.1 11.25-10.4 26.25-10.4 26.25s-15.5 8.75-12.1 20.83c3.3 12.08-25.4 67.5-25.4 67.5s18.3-11.25 34.5-38.33c16.3-27.09 25-57.09 25-57.09s-2-13.33 3.4-17.91-7.5-31.25 10.4-40z"/>
            <path id="path3890" d="m1251 156.04s-10 19.38-12.2 21.46-18.4 6.25-13.2 29.17l1.9-2.92 1.9 1.46s34.4-38.34 21.6-49.17z"/>
            <path id="path3892" d="m1220.4 301.04s9.2 10.63 18.1 8.75-13.5-4.58-14.3-10.42c-0.9-5.83 0.2-9.37 0.2-9.37s4.8 14.17 20.2 15.42-6.9-3.75-7.3-5.63 7.9 5.83 12.7 6.25-20.2-12.92-18.3-18.75 10.4 5.83 15.4-10.62c5-16.46 5.4-37.09 11.7-42.71 6.2-5.63 6.4-13.34 6.4-13.34l-21.4 10-24.2 62.09 0.8 8.33z"/>
            <path id="path3894" d="m1265.4 161.46s0.6 17.29 3.4 23.96c2.7 6.66 0.8 1.87 0.8 1.87s-1.9 5.83-0.8 8.54c1 2.71 5.2 21.46 5.2 21.46s-5.7 9.58-13.4 11.67-10-0.42-12.9 2.5c-2.9 2.91 0.2 10-5 30 0 0-7.3 13.33-16 20.62 0 0-5 9.38-6.7 21.67s-6.9 15.21-6.9 15.21 5.2-7.5 5.7-30-1.1-16.88 6.6-24.79c7.7-7.92 12.3-55.63 12.3-55.63l27.7-47.08z"/>
          </g>
        </g>
        <g id="g3896" fill-rule="evenodd">
          <rect id="rect3898" style="enable-background:accumulate" height="195.97" width="195.97" y="-977.95" x="503.09"/>
          <rect id="rect3900" style="enable-background:accumulate" height="195.97" width="195.97" y="-781.95" x="503.09"/>
        </g>
        <rect id="rect3902" style="enable-background:accumulate" fill-rule="evenodd" height="195.97" width="195.97" y="-781.95" x="307.09"/>
        <g id="g3904" fill-rule="evenodd" transform="matrix(.34255 0 0 .34255 129.45 -995.93)">
          <path id="path3906" d="m1398.4 135.2c-12 1.01-19.2 13.93-19.2 13.93-27.3 13.96-21.6 41.25-21.6 41.25-2.1 7.92-13.2 24.38-13.2 24.38-16.7 7.74-12.1 24.15-12.1 24.15l2.4 2.1c-2.7-8.88 1.1-6.03 1.4-5.85v0.1c0 1.53 5.4 5.53 5.4 5.53l5.8-1.78c-10.9 4.49-10 10.87-9.7 11.87 3-6.52 7.2-3.59 7.5-3.4-7.4 3.59-13.4 13.7-14.4 15.53 4-4.64 13.3-7.41 13.3-7.41l-4.8 4.38c-11.6 3.33-12.7 19.56-12.7 19.56l-11 5.62c-14 5.21-13.2 18.75-13.2 18.75-5.8 4.59-5.8 21.07-5.8 21.07l-7.5 15.62c-4.3 13.34-0.8 30-0.8 30-5.8 0.42-5 6.88-5 6.88s-3.1 0.4-10.4 2.28c-7.3 1.87-5.9 13.34-5.9 13.34-2.3 1.25-2.1 4.16-2.1 4.16l0.3 10c-5 5.83-4.6 20.84-4.6 20.84-1.1 11.04 9.2 16.44 9.2 16.44 3.1 7.29-0.5 7.1-1.7 12.94-1.2 5.65 3.8 5.04 4.2 5-4 16.25-4 42.68-4 42.68-1.3 22.3 0 63.75 0 63.75-2.8 7.27-0.6 12.41-0.4 12.72 0 0 1.6 6.87 1 15.41s1.7 14.81 1.7 14.81l0.6 12.28c0 13.12 2.3 18.23 2.5 18.53l5.2 13.57c8.1 7.71 6-3.35 6-3.35l-4.3-13.12 0.2-7.72c0.1-0.46 0.2-0.79 0.3-1 0-0.03 0-0.07 0.1-0.09v-0.1c0-0.01 0.1-0.05 0.1-0.06v-0.06h0.1v-0.03h0.1s0.1 0.02 0.1 0.03v0.03s0.1 0.02 0.1 0.03v0.03c0.3 0.31 0.6 1.03 0.6 1.03-0.5 7.5 5.4 22.06 5.4 22.06l-1.3 4.82-4.8 5.81c-0.2 5.47-2.2 6.18-2.5 6.25-4.8 2.29-4.3 9.59-4.3 9.59-6.9 7.87-6.9 12.83-6.9 13.13l-19.2 46.65c-4.6 6.67-5.2 14.6-5.2 14.6-3.5 8.75-7.9 22.5-7.9 22.5-11 22.04-9.2 29.13-9 29.75v0.03c-4.6 8.33-5 22.72-5 22.72l0.7 47.9c-0.7 16.88 2.5 37.72 2.5 37.72l-1.3 75.63c1.3 39.59 2.3 79.39 2.3 79.39l-5.6 6.9c-5.5 0.8-6.2 6.9-6.3 7.2-5.4 1.9-3.5 9.4-3.5 9.4l0.2 13.4c0.4 8.7 17.7 7.5 17.7 7.5 28.5 0.4 31-12.8 31-12.8l0.5-9.7c2.2-3.4 2.9-11.3 2.9-11.3 4.8 5.4 10.6 3.1 10.6 3.1 14.6-3.1 13.5-21.4 13.5-21.4s2.5 0.2 3-3.3c0.4-3.6 6.2-11.7 6.2-11.7l-0.4-14.2c2.5-6 1.8-19.6 1.8-19.6l-0.8-34.36c-0.4-28.33-2.7-61.03-2.7-61.03 0.2-24.59-1.9-44.38-1.9-44.38 0.9-12.5 4.3-25.72 5.7-47.72 6.7-21.81 23.5-45.62 27.7-52.29 7.5-12.02 8.5-13.75 13.1-21.66 8.4-14.54 23.8-37.92 23.8-37.92 16.4-30 45.1-53.13 45.1-53.13 5.7 9.38 12.4 54.38 12.4 54.38 6.4 26.87 9.7 61.87 9.7 61.87l2.5 47.72-3.9 42.28c-3.6 10.21 0 60.85 0 60.85-16.6 33.43-4.2 46.47-3.8 46.87-3.1 4.17-8.7 21.47-8.7 21.47-4.2 12.55-3.2 51.25-3.2 51.25l3.6 2.1c-1.7 3.9-1.9 13.9-1.9 13.9 1.2 17.5 4.9 21.9 5.4 22.5 11.9 9.6 27.9 2.8 27.9 2.8 17.1-7.1 16.9-26.3 16.9-26.3l5.5 1.3c4.6 0.8 4.9-3.5 5-3.8l13.3-36.7c9.1-10.2 8.3-28.92 8.3-28.92-0.2-11.25 4.8-46.88 4.8-46.88l1.5-55.62c-1.3-37.09-4.8-90.85-4.8-90.85-1.5-26.04 1-60 1-60 0-21.66 5.9-65.84 5.9-65.84l14.7-3.31c4-0.42 6.1-2.94 6.1-2.94l8.5-12.5c4.2-1.88 4-8.53 4-8.53l3.7-29.16c3.6-8.88 1-16.41 0.9-16.87 0 0 0.6-66.68 0.4-80.22s-5-36.66-5-36.66 0.6-4.18 0.2-6.47c0.3-1.62 0.2-2.56 0-3.09 0-0.06 0-0.14-0.1-0.19v-0.06c0-0.03-0.1-0.09-0.1-0.13v-0.03s-0.1-0.02-0.1-0.03c0-0.02 0-0.04-0.1-0.06-0.1-0.06-0.2-0.11-0.2-0.13-0.1 0-0.1-0.02-0.1-0.03h-0.2l-0.1-3.75-0.3-17.09-0.2-11.66v-0.03c-0.4-0.43-2.8-3.6 0.9-12.06 3.9-9.17-0.9-21.03-0.9-21.03s-3.7-5.84-3.5-8.75c0.2-2.92-3.1-5.64-3.1-8.35 0-0.67-0.2-1.16-0.4-1.46-0.1-0.01-0.1-0.03-0.1-0.04v-0.03c0-0.02-0.1-0.07-0.1-0.09v-0.03c0-0.01-0.1-0.03-0.1-0.03 0-0.04-0.1-0.07-0.2-0.1v-0.03c-0.1 0-0.1-0.02-0.1-0.03h-0.3c-0.1 0.01-0.1 0.02-0.2 0.03-0.1 0.03-0.2 0.08-0.3 0.13-0.1 0.04-0.2 0.1-0.2 0.15 0 0.01-0.1 0.03-0.1 0.03-0.3 0.31-0.6 0.83-0.7 1.5 0 0.77-0.2 1.5-0.5 1.88v0.09c0 0.01-0.1 0.06-0.1 0.07v0.06c-0.1 0-0.1 0.02-0.1 0.03 0 0-0.1 0.02-0.1 0.03h-0.2v-0.03c0-0.01 0-0.03-0.1-0.03v-0.1c-0.1-0.02-0.1-0.06-0.1-0.09-0.3-0.46-0.6-1.5-0.8-3.34-0.6-5.42 1.4-7.93 3.1-11.47s-2.5-3.13-2.5-3.13l0.8-6.65c3.4-7.07 1.6-11.81 1.5-12.1l-5.6-9.78c1.6-8.07-3.1-11.07-3.4-11.25l-14.9-11.31c6.6 3.47 17 3.94 19 4-2.7-0.62-16.1-5.41-16.1-5.41-5.5-2.71-7.4-4.59-7.4-4.59s-10.8-13.73-12.6-17.06c-1.9-3.34 0.6-6.25 0.6-6.25s-0.6-4.39-1.9-5.22c-2.4-2.26-3.4-3.54-3.4-4.13v-0.15c0-0.01 0.1-0.05 0.1-0.07v-0.06s0-0.02 0.1-0.03v-0.03h0.1c0-0.01 0.1-0.03 0.1-0.03 1.8-0.26 7.2-16.53 7.2-16.53l0.8-1.88c8.4-8.31-1.5-30.62-1.5-30.62 0.7-3.96-1-10-1-10 1.3-3.54 1.2-4.79-1.5-16.25-2.4-10.41-5.6-12.07-6.2-12.28v-2.72c1.6-5.25-2.7-9.14-2.9-9.38l-5.2-13.56c-12.1-19.17-29.8-26.25-29.8-26.25s5.6 3.3-0.1-0.03c-5.1-3.05-13.1-7.31-36.2-11.22-2.3-0.4-4.5-0.59-6.5-0.59-0.3 0-0.7-0.01-1 0-0.1 0-0.2-0.01-0.4 0 0 0-0.1-0.01-0.2 0zm70.6 289.18c0 0.01 0.1 0.03 0.1 0.03v0.16c0 0.01 0.1 0.03 0.1 0.03v0.06c0.4 0.37 1.7 1.09 5.6 2.88 5.7 2.65 6.6 6.49 5.9 11.5-0.8 5.01 7 6.19 7 6.19l1.1 12.65c-0.3 5 5.1 5.6 5.4 5.63 6 0.14 7.9 3.18 8 3.37l4.5 34.91c1.5 24.01 10.4 62.91 10.4 62.91 4.2 16.49 5.1 32.7 5.6 37.12 0.2 2.69-0.7 3.54-1.4 3.78-0.4 0.12-0.7 0.08-0.8 0.06l-5.5-0.15-1.2-3.97c5.1-6.71 2-12.05 1.8-12.38-3.1-2.5-8.4-13.12-8.4-13.12 0-3.22-1.2-4.57-1.7-5-0.1-0.1-0.2-0.16-0.2-0.16-2.5-5.74 0.1-11.18 0.3-17.22 0.1-5.85-3.2-7.43-3.4-7.53-3.3 0-5.8-1.75-6.8-3.37s-3.1-1.94-3.1-1.94c-2.1-4.71-9-17.22-9-17.22-4.2-8.25-13.8-17.53-13.8-17.53-13.1-9.72-19.6-21.37-19.6-21.37 3.4-3.98 5.6-13.1 5.6-13.1 2.7-6.67 0.5-9.5 0.1-9.97-0.1-0.02-0.1-0.05-0.1-0.06l0.3-2.34c3-4 1.1-6.77 1-6.94l0.2-3.38c6 0.15 3.3-2.22 7.3-10.03 3.7-7.32 4.6-13.72 4.7-14.5zm-159.5 21.35c0-0.01 0.1 0 0.1 0h0.1c1.1-0.07 2.4 1.13 2.5 1.28-0.5 2.5 1.4 8.47 1.4 8.47l5.1 16.12c2.2 7.71 6.6 10.73 6.9 10.91 0.5 3.9-0.9 24.12-0.9 24.12-5.9 20.21-1.7 51.25-1.7 51.25-7.1 0.42-4.8 15.22-4.8 15.22 2.3 1.88 1.9 6.44 1.9 6.44-2.5 0.83-1.9 4.19-1.9 4.19l-8.5 6.65s-0.1-0.02-0.1-0.03v-0.06c-1.2-1.24-7.7-5.94-7.7-5.94-5.6-2.22-5.8-7.01-5.8-7.31-5.4-15.21-0.8-45-0.8-45l12.9-84.38c0.2-0.8 0.4-1.32 0.8-1.62 0-0.03 0.1-0.07 0.1-0.09 0.1-0.09 0.3-0.16 0.4-0.19v-0.03zm-1.3 164.56c1.2-0.08 3 0.05 3.2 1.41 0.4 2.06-3 4.06-3 4.06l-1.2-5.31c0-0.02 0.5-0.12 1-0.16zm202.7 9.22l5.4 6.47 0.1 0.03v0.03c0.5 0.45 2.5 2.95-0.7 9.53-3.4 7.14-6.1 7.34-6.3 7.34 0 0 2.8-21.35 0.6-23.12l0.9-0.28z"/>
          <path id="path3908" d="m1467.7 369.6s6.5-13.63-14.8-23.28-2.9-38.18-2.9-38.18 11.7-20.98 12.2-27.27c0.4-6.3 4.6 21.81 4.6 21.81s-12.2 19.09-12.4 26.86c-0.2 7.76 2.9 10.69 6.7 13.21 3.7 2.52 17.3 14.9 12.2 22.87s-8.5 9.75-8.5 9.75l2.9-5.77z"/>
          <path id="path3910" d="m1434.7 140.52s33.3 12.17 47.5 45.31 12.4 31.05 11.1 46.57-5.4 94.83-9.4 104.48-8 16.78 16 20.14-10 10.28-26.8-1.26-12.2-9.86-1.8-28.32-14.2-29.16-12.2-47.83-6-39.65-6-39.65 5.8-13.85-1.8-36.92l-16.6-62.52z"/>
          <path id="path3912" d="m1444.9 146.18s5.5 21.82 10.2 30 18.6 27.69 23.5 33.15 2.2 3.98 2.2 12.17-0.2 4.82 9.8 11.95 14.2 7.98 9.8 21.4c0 0-4 8.39-13.4 17.2 0 0-6.2 5.67-2.6 8.19 3.5 2.51 8.6 6.92 14.9 7.97 6.2 1.05 9.7 2.93 9.7 2.93s-20.2 1.05-26.4-1.04c-6.2-2.1-27.1-11.33-14.2-20.98s30.6-19.93 21.3-27.48c-9.3-7.56-32.2-16.16-29.5-32.52s-21.8-46.57-21.8-46.57l-5.3-21.61s6.4 1.26 11.8 5.24z"/>
          <path id="path3914" d="m1400.7 160.31s16.3-6.19 33.5 24.2 20 23.96 33.1 24.82c13 0.85 14.4-6.85 23.7-6.42s4.7-0.86-1.4-5.14l5.6 0.43s-1.4-12.84-14-11.13c-12.5 1.72-23.2-5.13-30.2-12.84-7-7.7-15.4-20.11-13.5-28.24 0 0-0.9-9.29-23.8-11.13-26.3-2.14-27.3 3.45-35.2 14.24 0 0 22.2 9.5 22.2 11.21z"/>
          <path id="path3916" d="m1383.6 157.09s17.3 10.49 28.9 39.02c11.5 28.53 36.8 20.98 36.8 20.98s-17.3 2.1-27.5-16.78-13.8-30.21-13.8-30.21-0.9-9.23-18.6-19.3c-17.8-10.07-32.9 21.4-32.9 21.4s-4.4 12.58 0 23.91c4.5 11.33-11.1 26.44-11.1 26.44s-16.4 8.81-12.8 20.97c3.5 12.17-27.1 67.97-27.1 67.97s19.5-11.32 36.8-38.6c17.3-27.27 26.7-57.48 26.7-57.48s-2.3-13.42 3.5-18.04-8-31.47 11.1-40.28z"/>
          <path id="path3918" d="m1355.9 193.18s-10.7 19.51-13.1 21.6-19.6 6.3-14 29.37l2-2.93 2 1.46s36.6-38.6 23.1-49.5z"/>
          <path id="path3920" d="m1323.2 339.19s9.8 10.69 19.3 8.81-14.4-4.62-15.3-10.49c-0.9-5.88 0.3-9.44 0.3-9.44s5.1 14.26 21.5 15.52-7.3-3.78-7.8-5.66 8.4 5.87 13.6 6.29-21.6-13.01-19.6-18.88 11.1 5.87 16.4-10.7c5.4-16.57 5.8-37.34 12.5-43.01 6.6-5.66 6.9-13.42 6.9-13.42l-22.9 10.07-25.8 62.51 0.9 8.4z"/>
          <path id="path3922" d="m1371.2 198.63s0.6 17.41 3.5 24.12c2.9 6.72 0.9 1.89 0.9 1.89s-2 5.88-0.9 8.6c1.1 2.73 5.6 21.61 5.6 21.61s-6 9.65-14.2 11.75-10.7-0.42-13.8 2.52c-3.1 2.93 0.2 10.07-5.3 30.21 0 0-7.8 13.42-17.1 20.76 0 0-5.3 9.45-7.1 21.82-1.8 12.38-7.3 15.32-7.3 15.32s5.5-7.56 6-30.21-1.2-16.99 7.1-24.97c8.2-7.97 13.1-56.01 13.1-56.01l29.5-47.41z"/>
        </g>
        <g id="g3924" font-family="Bitstream Vera Sans" transform="translate(26.868 23.408)">
          <flowRoot id="flowRoot3926" xml:space="preserve" font-size="12px" transform="translate(10.756 18.183)">
            <flowRegion id="flowRegion3928">
              <rect id="rect3930" height="102.03" width="160.61" y="-745.62" x="328.3" fill="url(#linearGradient6362)"/>
            </flowRegion>
            <flowPara id="flowPara3932">Lorem Ipsum</flowPara>
            <flowPara id="flowPara3934"/>
          </flowRoot>
          <flowRoot id="flowRoot3936" xml:space="preserve" font-size="8px">
            <flowRegion id="flowRegion3938">
              <rect id="rect3940" height="83.843" width="138.39" y="-700.16" x="323.25" fill="url(#linearGradient6362)"/>
            </flowRegion>
            <flowPara id="flowPara3942">This album is by somebody.</flowPara>
          </flowRoot>
        </g>
      </g>
      <rect id="rect3507" style="enable-background:accumulate" fill-rule="evenodd" height="731.58" filter="url(#filter3528)" width="979.14" y="307.78" x="414"/>
      <path id="rect2373" d="m417.12 205.22c-60.14 0-108.56 48.22-108.56 108.12v1772.9c0 59.9 48.42 108.1 108.56 108.1h974.28c60.2 0 108.6-48.2 108.6-108.1v-1772.9c0-59.86-48.4-108.08-108.6-108.08h-974.28zm0 104.66h974.38v729.12h-974.38v-729.12z" style="enable-background:accumulate" fill-rule="evenodd"/>
      <path id="rect2964" d="m417.12 205.22c-60.14 0-108.56 48.22-108.56 108.12 32.53 32.92 62.49 63.02 90.75 91.25v-88.75c0-12.73 10.23-22.96 22.97-22.96h964.02c12.7 0 22.9 10.23 22.9 22.96v716.86c0 12.8-10.2 23-22.9 23h-408.05c131.65 226.8 283.45 583.2 413.15 1138.6 60.2 0 108.6-48.2 108.6-108.1v-1772.9c0-59.86-48.4-108.08-108.6-108.08h-974.28z" style="enable-background:accumulate" fill="url(#linearGradient6915)" fill-rule="evenodd"/>
      <rect id="rect3509" style="enable-background:accumulate" rx="22.992" ry="22.992" height="762.85" width="1010" stroke="#ececec" y="292.86" x="399.3" stroke-width="2" fill="none"/>
      <path id="path6005" style="enable-background:accumulate" d="m417.12 205.22c-60.14 0-108.56 48.22-108.56 108.12v1772.9c0 59.9 48.42 108.1 108.56 108.1h974.28c60.2 0 108.6-48.2 108.6-108.1v-1772.9c0-59.86-48.4-108.08-108.6-108.08h-974.28z" stroke="url(#linearGradient6917)" stroke-width="12" fill="none"/>
      <path id="path2956" style="enable-background:accumulate" d="m1254.3 1614.3a340 340 0 1 1 -680.01 0 340 340 0 1 1 680.01 0z" fill-rule="evenodd" transform="matrix(1.0766 0 0 1.0766 -80.038 -127.23)" fill="url(#linearGradient6919)"/>
      <path id="path6135" opacity=".14437" style="enable-background:accumulate" d="m1254.3 1614.3a340 340 0 1 1 -680.01 0 340 340 0 1 1 680.01 0z" fill-rule="evenodd" transform="matrix(1.0766 0 0 1.0766 -80.038 -127.23)" fill="url(#pattern6177)"/>
      <path id="path2958" d="m1254.3 1614.3a340 340 0 1 1 -680.01 0 340 340 0 1 1 680.01 0z" style="enable-background:accumulate" transform="matrix(.41532 0 0 .41532 524.56 940.27)" fill-rule="evenodd"/>
      <path id="path6191" d="m937.27 1855.7l-109.48 63.2v-126.4l109.48 63.2z" style="enable-background:accumulate" transform="matrix(.31357 0 0 .31357 598.38 1338.9)" fill="#fff"/>
      <rect id="rect6194" style="enable-background:accumulate" height="37.143" width="8.75" y="1902.7" x="915.89" fill="#fff"/>
      <rect id="rect6196" style="enable-background:accumulate" transform="translate(-162.86 1170.5)" height="37.143" width="8.75" y="732.18" x="1098.8" fill="#fff"/>
      <path id="path6198" style="enable-background:accumulate" transform="matrix(.31357 0 0 .31357 898.74 1029.3)" fill="#fff" d="m937.27 1855.7l-109.48 63.2v-126.4l109.48 63.2z"/>
      <rect id="rect6200" style="enable-background:accumulate" transform="translate(-162.86 1170.5)" height="37.143" width="8.75" y="422.54" x="1385.1" fill="#fff"/>
      <path id="path6204" d="m937.27 1855.7l-109.48 63.2v-126.4l109.48 63.2z" style="enable-background:accumulate" transform="matrix(.31357 0 0 .31357 930.74 1029.3)" fill="#fff"/>
      <path id="path6206" d="m937.27 1855.7l-109.48 63.2v-126.4l109.48 63.2z" style="enable-background:accumulate" transform="matrix(-.31357 0 0 -.31357 905.32 2193.1)" fill="#fff"/>
      <rect id="rect6208" style="enable-background:accumulate" transform="matrix(-1 0 0 -1 -162.86 1170.5)" height="37.143" width="8.75" y="-458.79" x="-744.66" fill="#fff"/>
      <path id="path6210" style="enable-background:accumulate" transform="matrix(-.31357 0 0 -.31357 873.32 2193.1)" fill="#fff" d="m937.27 1855.7l-109.48 63.2v-126.4l109.48 63.2z"/>
      <text id="text6212" font-size="46.307px" font-weight="bold" xml:space="preserve" transform="translate(-162.86 1170.5)" y="148.22676" x="989.80396" font-family="Bitstream Vera Sans" line-height="125%" fill="#ffffff">
        <tspan id="tspan6214" y="148.22676" x="989.80396">MENU</tspan>
      </text>
    </g>
  </g>
  <metadata>
    <rdf:RDF>
      <cc:Work>
        <dc:format>image/svg+xml</dc:format>
        <dc:type rdf:resource="http://purl.org/dc/dcmitype/StillImage"/>
        <cc:license rdf:resource="http://creativecommons.org/licenses/publicdomain/"/>
        <dc:publisher>
          <cc:Agent rdf:about="http://openclipart.org/">
            <dc:title>Openclipart</dc:title>
          </cc:Agent>
        </dc:publisher>
        <dc:title>iPod MediaPlayer</dc:title>
        <dc:date>2007-12-09T14:42:59</dc:date>
        <dc:description>This is an iPod MediaPlayer. There is a problem with the SVG rendering in Firefox, for preview please see PNG file. Download the SVG and open it with your vector drawing application to watch the SVG directly.</dc:description>
        <dc:source>http://openclipart.org/detail/9627/ipod-mediaplayer-by-flomar</dc:source>
        <dc:creator>
          <cc:Agent>
            <dc:title>flomar</dc:title>
          </cc:Agent>
        </dc:creator>
        <dc:subject>
          <rdf:Bag>
            <rdf:li>clip art</rdf:li>
            <rdf:li>clipart</rdf:li>
            <rdf:li>computer</rdf:li>
            <rdf:li>image</rdf:li>
            <rdf:li>ipod</rdf:li>
            <rdf:li>media</rdf:li>
            <rdf:li>music</rdf:li>
            <rdf:li>player</rdf:li>
            <rdf:li>png</rdf:li>
            <rdf:li>public domain</rdf:li>
            <rdf:li>sound</rdf:li>
            <rdf:li>svg</rdf:li>
            <rdf:li>video</rdf:li>
          </rdf:Bag>
        </dc:subject>
      </cc:Work>
      <cc:License rdf:about="http://creativecommons.org/licenses/publicdomain/">
        <cc:permits rdf:resource="http://creativecommons.org/ns#Reproduction"/>
        <cc:permits rdf:resource="http://creativecommons.org/ns#Distribution"/>
        <cc:permits rdf:resource="http://creativecommons.org/ns#DerivativeWorks"/>
      </cc:License>
    </rdf:RDF>
  </metadata>
</svg>
